<svg width="103" height="82" viewBox="0 0 103 82" fill="none" xmlns="http://www.w3.org/2000/svg">
<path d="M54.4491 75.2682C54.5306 74.4289 54.5641 73.5943 54.5689 72.7549C54.3724 71.6182 54.1471 70.4863 53.9697 69.3592C53.476 66.2224 52.7426 63.1335 52.2489 59.9968C51.8414 57.3828 51.7791 54.74 51.7743 52.0972C51.5634 50.4953 51.6305 49.0324 52.2872 47.747C52.4694 47.3873 52.6228 47.2626 54.2094 45.5934C57.3491 42.284 57.6271 41.9578 57.8237 41.2768C58.4229 39.2239 57.3204 37.2862 57.1047 36.9025C56.1603 35.2382 54.7463 34.4852 54.2094 34.231C53.5383 34.8401 52.9343 35.3821 52.2824 35.972C51.6497 35.4013 51.108 34.9121 50.4849 34.3461C49.7419 34.8641 49.066 35.3341 48.3614 35.8282C47.7286 35.0751 47.1199 34.3557 46.4152 33.5163C46.0941 33.924 45.5332 34.5236 44.6704 34.984C44.2246 35.219 43.8076 35.3629 43.4577 35.4492C41.3198 35.6123 39.436 34.5379 38.8224 32.9264C38.4869 32.0439 38.4437 30.7824 39.0717 29.732C39.5941 28.8639 40.3899 28.4418 40.6583 28.3123C41.0322 28.1349 41.339 28.0725 41.9382 27.9478C42.499 27.8327 43.194 27.7272 44.0041 27.684C43.985 26.8111 43.9706 25.9382 43.9514 25.0652C44.8717 24.883 45.6723 24.7247 46.5734 24.5472V21.751C47.5177 21.6934 48.3326 21.6503 49.2482 21.5975C49.3728 20.3888 49.4879 19.3001 49.5885 18.2928C50.6622 18.3456 51.5395 18.3888 52.431 18.4367C52.431 17.3288 52.2681 16.4655 52.4742 15.698C52.6851 14.9114 53.2747 14.2304 53.6725 13.4917C53.8882 13.0888 54.0416 12.6524 54.2478 12.2399C54.823 11.0888 54.6025 10.024 53.9601 8.97361C52.0955 5.91357 49.9193 4.97829 46.4104 5.76488C45.888 5.87999 45.3559 5.98551 44.8526 6.15818C39.7092 7.91843 34.5466 9.60193 29.2307 10.7866C27.4427 11.1847 26.0574 12.3694 25.1467 13.9426C24.001 15.9283 22.8122 17.9283 22.0021 20.0579C21.4269 21.5783 20.5258 22.2114 19.0781 22.5232C18.0428 22.7486 16.993 23.0556 16.0439 23.516C14.7209 24.1635 14.6106 24.907 15.4926 26.0773C15.9768 26.72 16.5136 27.3195 17.1512 28.0869C16.5184 28.3699 16.1925 28.5378 15.8521 28.6673C14.9941 28.9886 14.1025 29.2428 13.2685 29.6169C11.0012 30.629 10.7807 31.5355 12.3002 33.4252C12.7652 34.0056 13.2397 34.5715 13.8245 35.2814C11.6387 36.3941 9.15088 36.5572 7.70326 38.6292C8.24492 40.7156 10.4451 41.176 11.6435 42.7252C9.15568 43.9627 6.20291 44.2217 4.46767 46.663C5.81943 49.3058 8.64757 49.5216 10.982 51.1284C9.90346 51.5121 9.05022 51.7615 8.24013 52.1164C6.63432 52.8215 4.98057 53.469 3.48501 54.3659C1.86003 55.3347 1.76896 56.1885 3.14468 57.4307C4.32387 58.5003 5.71397 59.3445 7.03217 60.2462C7.65053 60.6682 8.32641 60.9992 9.31865 61.57C8.39831 61.8673 7.83748 62.0496 7.28143 62.2318C5.68521 62.7594 4.03626 63.1719 2.49756 63.8386C-0.59422 65.1768 -0.805132 66.678 1.8073 68.8268C3.39873 70.1362 5.11479 71.3112 6.84523 72.4336C7.62656 72.942 8.03401 73.4552 8.12029 74.4145C8.42707 77.9733 9.02625 78.64 12.4823 79.652C12.9952 79.8007 13.5129 79.9734 14.0402 80.0405C17.6832 80.5058 21.3167 81.2012 24.9741 81.3451C30.5585 81.5658 36.1668 81.537 41.756 81.3451C44.6417 81.2444 47.5417 80.7216 50.3746 80.1029C53.5527 79.4074 54.08 79.1053 54.4443 75.2634L54.4491 75.2682ZM37.648 18.1298C37.5473 19.0651 36.4976 19.7701 35.5628 19.9284C35.4382 19.9476 34.1632 20.1442 33.2428 19.2281C32.6149 18.5998 32.2218 17.511 32.6149 16.7388C32.7443 16.4846 32.9217 16.3264 33.0367 16.2304C33.6982 15.6645 34.537 15.7028 34.8294 15.7172C35.8505 15.7604 37.1351 16.312 37.5378 17.3959C37.5953 17.5494 37.6864 17.8084 37.6528 18.1346L37.648 18.1298Z" fill="#161827"/>
<path d="M102.986 7.0112C102.424 7.12665 101.533 7.38063 100.693 8.03175C99.3006 9.10772 99.3242 10.2899 97.9228 12.2571C97.2716 13.1668 96.5921 14.1227 95.3417 14.9216C93.8601 15.8683 92.0906 16.2747 90.0993 16.2516C89.4529 16.2423 88.8017 16.113 88.16 16.0715C87.4333 16.0253 86.6925 15.9376 85.9659 15.993C84.2577 16.1223 83.3376 16.8842 83.4225 17.9925C83.5216 19.3178 84.7768 20.1398 86.5274 19.8535C87.4711 19.7011 88.3723 19.2855 89.283 18.9623C91.5574 18.1634 93.8176 17.7385 96.6157 19.3317C92.6049 19.7612 90.6326 22.3241 88.5564 24.6746C84.6494 29.1031 79.591 31.4628 73.8627 32.585C69.1252 33.5178 64.3217 33.8826 59.5464 32.9821C57.4136 32.585 55.3469 31.7676 53.3037 30.9964C52.5016 30.6963 51.7796 30.0775 51.1473 29.4679C49.7553 28.1149 49.6421 26.7619 50.7415 25.1733C51.1473 24.5868 51.6333 24.0188 52.1901 23.5663C53.9926 22.0932 55.1581 20.2137 56.0594 18.1264C56.4982 17.1013 57.0361 16.1177 57.5929 15.1387C58.1592 14.1412 58.9377 13.3469 60.4194 13.0791C60.2873 13.8041 60.1268 14.4367 60.0702 15.0786C59.9805 16.1038 60.5279 16.6718 61.5235 16.3993C62.2455 16.1962 63.0382 15.7482 63.4817 15.1756C64.1518 14.3028 64.6001 13.2453 65.0483 12.2294C66.6055 8.6644 68.4268 5.30259 71.9563 3.19684C73.405 2.3333 74.8536 1.39125 76.8873 1.61753C76.5098 2.21785 76.0379 2.67964 75.9341 3.21531C75.8256 3.76484 75.8869 4.56835 76.2314 4.91469C76.5853 5.26565 77.4535 5.41342 77.9584 5.24718C78.7794 4.9701 79.4919 4.36978 80.2422 3.89414C81.1954 3.28458 82.0966 2.58266 83.097 2.06546C84.6352 1.26195 86.3292 0.837105 88.0562 1.23886C91.246 1.97772 94.3461 1.83457 97.701 0.5C97.3801 2.361 96.309 3.43235 95.0492 4.18968C93.8884 4.88236 92.5436 5.31183 91.2365 5.7182C89.4812 6.26311 88.7357 6.91423 88.9386 7.98096C89.1462 9.06154 90.5382 10.0913 91.9302 9.97126C92.8786 9.88814 93.8365 9.57874 94.733 9.22317C96.0165 8.71982 97.2292 8.04099 98.4985 7.51455C99.8527 6.96041 101.24 6.46629 103 7.0112H102.986Z" fill="#FF4C33"/>
</svg>
