<svg width="55" height="55" viewBox="0 0 55 55" fill="none" xmlns="http://www.w3.org/2000/svg">
<rect x="0.952881" y="0.141022" width="54" height="54" rx="10" fill="#EAEAEA" fill-opacity="0.7"/>
<path d="M31.2999 43.1891C31.3378 42.7915 31.3534 42.3962 31.3557 41.9986C31.2642 41.4602 31.1593 40.924 31.0767 40.3901C30.8469 38.9043 30.5055 37.4411 30.2756 35.9553C30.086 34.7171 30.057 33.4652 30.0547 32.2134C29.9565 31.4546 29.9878 30.7616 30.2935 30.1528C30.3783 29.9824 30.4497 29.9233 31.1883 29.1327C32.6499 27.565 32.7793 27.4105 32.8708 27.0879C33.1497 26.1155 32.6365 25.1977 32.5361 25.0159C32.0965 24.2275 31.4382 23.8708 31.1883 23.7504C30.8759 24.039 30.5947 24.2957 30.2913 24.5751C29.9967 24.3048 29.7446 24.073 29.4545 23.805C29.1086 24.0503 28.794 24.273 28.4659 24.507C28.1714 24.1503 27.888 23.8095 27.56 23.4119C27.4105 23.605 27.1494 23.889 26.7477 24.1071C26.5402 24.2185 26.3461 24.2866 26.1832 24.3275C25.188 24.4048 24.311 23.8958 24.0254 23.1325C23.8692 22.7144 23.8491 22.1169 24.1414 21.6194C24.3846 21.2081 24.7551 21.0082 24.88 20.9469C25.0541 20.8628 25.1969 20.8333 25.4758 20.7742C25.7369 20.7197 26.0604 20.6697 26.4376 20.6492C26.4286 20.2357 26.4219 19.8223 26.413 19.4088C26.8415 19.3224 27.2141 19.2475 27.6336 19.1634V17.8389C28.0732 17.8116 28.4526 17.7911 28.8788 17.7662C28.9368 17.1936 28.9903 16.6779 29.0372 16.2008C29.537 16.2258 29.9454 16.2462 30.3604 16.2689C30.3604 15.7441 30.2846 15.3352 30.3805 14.9717C30.4787 14.5991 30.7532 14.2765 30.9384 13.9266C31.0388 13.7357 31.1102 13.529 31.2061 13.3336C31.4739 12.7883 31.3713 12.284 31.0723 11.7864C30.2042 10.3369 29.1912 9.8939 27.5577 10.2665C27.3145 10.321 27.0668 10.371 26.8325 10.4528C24.4382 11.2866 22.0349 12.084 19.5603 12.6452C18.7279 12.8338 18.0831 13.3949 17.6591 14.1401C17.1258 15.0807 16.5724 16.0281 16.1953 17.0369C15.9275 17.7571 15.508 18.057 14.8341 18.2046C14.3521 18.3114 13.8634 18.4568 13.4216 18.6749C12.8057 18.9816 12.7544 19.3338 13.165 19.8881C13.3903 20.1926 13.6403 20.4766 13.937 20.8401C13.6425 20.9741 13.4908 21.0536 13.3323 21.115C12.9329 21.2672 12.5179 21.3876 12.1296 21.5648C11.0741 22.0442 10.9715 22.4736 11.6788 23.3687C11.8953 23.6437 12.1162 23.9117 12.3884 24.248C11.3709 24.7751 10.2128 24.8523 9.53888 25.8338C9.79103 26.8221 10.8153 27.0402 11.3731 27.774C10.215 28.3602 8.84044 28.4829 8.03266 29.6393C8.66193 30.8911 9.97847 30.9934 11.0652 31.7545C10.5631 31.9362 10.1659 32.0544 9.7888 32.2225C9.04127 32.5565 8.27142 32.8632 7.57521 33.288C6.81876 33.747 6.77636 34.1514 7.41678 34.7398C7.96572 35.2464 8.61283 35.6463 9.22648 36.0734C9.51433 36.2733 9.82897 36.4301 10.2909 36.7005C9.86244 36.8413 9.60136 36.9277 9.34251 37.014C8.59945 37.2639 7.83183 37.4593 7.11554 37.7751C5.67626 38.409 5.57808 39.1201 6.79421 40.1379C7.53505 40.7582 8.3339 41.3148 9.13945 41.8464C9.50318 42.0872 9.69285 42.3303 9.73302 42.7847C9.87583 44.4705 10.1548 44.7863 11.7636 45.2657C12.0024 45.3361 12.2434 45.4179 12.4888 45.4497C14.1847 45.6701 15.8762 45.9995 17.5788 46.0677C20.1784 46.1722 22.7892 46.1585 25.391 46.0677C26.7343 46.02 28.0844 45.7723 29.4031 45.4792C30.8826 45.1498 31.128 45.0067 31.2976 43.1869L31.2999 43.1891ZM23.4787 16.1235C23.4318 16.5666 22.9431 16.9005 22.508 16.9755C22.45 16.9846 21.8564 17.0778 21.428 16.6438C21.1357 16.3462 20.9527 15.8305 21.1357 15.4647C21.1959 15.3443 21.2785 15.2693 21.332 15.2239C21.64 14.9558 22.0305 14.9739 22.1666 14.9808C22.6419 15.0012 23.2399 15.2625 23.4274 15.7759C23.4541 15.8486 23.4965 15.9713 23.4809 16.1258L23.4787 16.1235Z" fill="#161827"/>
<path d="M53.9462 11.1007C53.6813 11.1531 53.2607 11.2686 52.8645 11.5645C52.2079 12.0536 52.219 12.591 51.558 13.4852C51.2508 13.8987 50.9303 14.3332 50.3405 14.6963C49.6416 15.1266 48.8069 15.3113 47.8677 15.3008C47.5627 15.2966 47.2556 15.2379 46.9529 15.219C46.6101 15.198 46.2607 15.1581 45.9179 15.1833C45.1122 15.2421 44.6782 15.5884 44.7182 16.0922C44.765 16.6946 45.357 17.0682 46.1828 16.9381C46.6279 16.8688 47.053 16.6799 47.4826 16.533C48.5554 16.1698 49.6216 15.9767 50.9414 16.7009C49.0495 16.8961 48.1192 18.0611 47.1398 19.1295C45.2969 21.1424 42.9109 22.215 40.2089 22.7251C37.9742 23.1491 35.7084 23.3149 33.4559 22.9056C32.4499 22.7251 31.475 22.3536 30.5112 22.003C30.1329 21.8666 29.7923 21.5853 29.4941 21.3083C28.8375 20.6932 28.7841 20.0782 29.3027 19.3562C29.4941 19.0896 29.7233 18.8314 29.986 18.6257C30.8362 17.9561 31.386 17.1018 31.8111 16.153C32.0181 15.687 32.2718 15.24 32.5345 14.795C32.8015 14.3416 33.1688 13.9805 33.8677 13.8588C33.8054 14.1883 33.7297 14.4759 33.703 14.7677C33.6607 15.2337 33.9189 15.4918 34.3885 15.368C34.729 15.2756 35.103 15.072 35.3122 14.8118C35.6283 14.415 35.8397 13.9344 36.0511 13.4726C36.7856 11.8521 37.6448 10.324 39.3096 9.36686C39.993 8.97434 40.6763 8.54614 41.6356 8.64899C41.4575 8.92186 41.2349 9.13177 41.186 9.37525C41.1348 9.62504 41.1637 9.99027 41.3262 10.1477C41.4931 10.3072 41.9026 10.3744 42.1408 10.2988C42.5281 10.1729 42.8642 9.90001 43.2181 9.68381C43.6677 9.40674 44.0928 9.08769 44.5647 8.85259C45.2902 8.48736 46.0893 8.29425 46.9039 8.47687C48.4085 8.81271 49.8708 8.74764 51.4534 8.14102C51.302 8.98693 50.7968 9.47391 50.2025 9.81815C49.6549 10.133 49.0206 10.3282 48.4041 10.5129C47.5761 10.7606 47.2244 11.0566 47.3201 11.5415C47.4181 12.0326 48.0747 12.5007 48.7313 12.4461C49.1786 12.4084 49.6305 12.2677 50.0534 12.1061C50.6588 11.8773 51.2308 11.5687 51.8295 11.3295C52.4683 11.0776 53.1227 10.853 53.9529 11.1007H53.9462Z" fill="#FF4C33"/>
</svg>
