<svg width="54" height="54" viewBox="0 0 54 54" fill="none" xmlns="http://www.w3.org/2000/svg">
<rect width="54" height="54" rx="10" fill="white" fill-opacity="0.5"/>
<path d="M30.347 43.0481C30.3849 42.6505 30.4005 42.2552 30.4028 41.8576C30.3113 41.3192 30.2064 40.783 30.1238 40.2491C29.894 38.7632 29.5526 37.3001 29.3228 35.8143C29.1331 34.576 29.1041 33.3242 29.1018 32.0724C29.0037 31.3135 29.0349 30.6206 29.3406 30.0117C29.4254 29.8413 29.4968 29.7823 30.2354 28.9916C31.697 27.424 31.8264 27.2695 31.9179 26.9469C32.1968 25.9745 31.6836 25.0566 31.5832 24.8749C31.1436 24.0865 30.4853 23.7298 30.2354 23.6094C29.923 23.8979 29.6418 24.1547 29.3384 24.4341C29.0438 24.1638 28.7917 23.932 28.5016 23.6639C28.1557 23.9093 27.8411 24.132 27.5131 24.366C27.2185 24.0093 26.9351 23.6685 26.6071 23.2709C26.4576 23.464 26.1965 23.748 25.7949 23.9661C25.5873 24.0774 25.3932 24.1456 25.2303 24.1865C24.2351 24.2637 23.3581 23.7548 23.0725 22.9914C22.9163 22.5734 22.8962 21.9759 23.1885 21.4783C23.4318 21.0671 23.8022 20.8672 23.9271 20.8058C24.1012 20.7218 24.244 20.6922 24.5229 20.6332C24.784 20.5786 25.1076 20.5287 25.4847 20.5082C25.4758 20.0947 25.4691 19.6812 25.4601 19.2677C25.8886 19.1814 26.2612 19.1064 26.6807 19.0224V17.6978C27.1203 17.6706 27.4997 17.6501 27.9259 17.6251C27.9839 17.0526 28.0374 16.5369 28.0843 16.0598C28.5841 16.0848 28.9925 16.1052 29.4076 16.1279C29.4076 15.6031 29.3317 15.1942 29.4276 14.8307C29.5258 14.4581 29.8003 14.1354 29.9855 13.7856C30.0859 13.5947 30.1573 13.388 30.2533 13.1926C30.521 12.6473 30.4184 12.143 30.1194 11.6454C29.2513 10.1959 28.2383 9.75287 26.6049 10.1255C26.3616 10.18 26.1139 10.23 25.8796 10.3118C23.4853 11.1456 21.0821 11.943 18.6074 12.5042C17.7751 12.6928 17.1302 13.2539 16.7062 13.9991C16.1729 14.9397 15.6195 15.8871 15.2424 16.8958C14.9746 17.616 14.5551 17.9159 13.8812 18.0636C13.3992 18.1704 12.9105 18.3158 12.4687 18.5339C11.8528 18.8406 11.8015 19.1928 12.2121 19.7471C12.4375 20.0516 12.6874 20.3356 12.9842 20.6991C12.6896 20.8331 12.5379 20.9126 12.3794 20.974C11.98 21.1262 11.565 21.2466 11.1767 21.4238C10.1212 21.9032 10.0186 22.3326 10.7259 23.2277C10.9424 23.5026 11.1633 23.7707 11.4355 24.107C10.418 24.6341 9.25989 24.7113 8.586 25.6928C8.83815 26.6811 9.86238 26.8992 10.4202 27.633C9.26213 28.2192 7.88756 28.3419 7.07978 29.4983C7.70904 30.7501 9.02559 30.8523 10.1123 31.6134C9.61023 31.7952 9.21303 31.9133 8.83592 32.0815C8.08839 32.4154 7.31854 32.7221 6.62233 33.147C5.86588 33.6059 5.82348 34.0103 6.4639 34.5988C7.01284 35.1054 7.65995 35.5053 8.2736 35.9324C8.56145 36.1323 8.87609 36.2891 9.33799 36.5595C8.90956 36.7003 8.64848 36.7866 8.38963 36.873C7.64656 37.1229 6.87895 37.3183 6.16266 37.6341C4.72338 38.2679 4.6252 38.9791 5.84133 39.9969C6.58217 40.6171 7.38102 41.1738 8.18657 41.7054C8.5503 41.9462 8.73997 42.1893 8.78013 42.6437C8.92295 44.3295 9.20188 44.6453 10.8107 45.1246C11.0495 45.1951 11.2905 45.2769 11.536 45.3087C13.2319 45.5291 14.9233 45.8585 16.6259 45.9266C19.2255 46.0312 21.8363 46.0175 24.4381 45.9266C25.7815 45.8789 27.1315 45.6313 28.4503 45.3382C29.9297 45.0088 30.1752 44.8657 30.3448 43.0458L30.347 43.0481ZM22.5258 15.9825C22.4789 16.4256 21.9902 16.7595 21.5551 16.8345C21.4971 16.8436 20.9035 16.9367 20.4751 16.5028C20.1828 16.2052 19.9998 15.6894 20.1828 15.3237C20.243 15.2032 20.3256 15.1283 20.3792 15.0828C20.6871 14.8147 21.0776 14.8329 21.2137 14.8397C21.689 14.8602 22.287 15.1215 22.4745 15.6349C22.5012 15.7076 22.5436 15.8303 22.528 15.9848L22.5258 15.9825Z" fill="#161827"/>
<path d="M52.9933 10.9596C52.7285 11.0121 52.3078 11.1276 51.9116 11.4235C51.255 11.9126 51.2661 12.45 50.6051 13.3441C50.2979 13.7577 49.9774 14.1922 49.3876 14.5553C48.6887 14.9856 47.8541 15.1703 46.9148 15.1598C46.6099 15.1556 46.3027 15.0968 46 15.0779C45.6572 15.057 45.3078 15.0171 44.965 15.0423C44.1593 15.101 43.7253 15.4474 43.7653 15.9511C43.8121 16.5536 44.4041 16.9272 45.2299 16.7971C45.675 16.7278 46.1002 16.5389 46.5297 16.3919C47.6025 16.0288 48.6687 15.8357 49.9886 16.5599C48.0967 16.7551 47.1663 17.92 46.187 18.9884C44.344 21.0014 41.958 22.074 39.256 22.5841C37.0213 23.0081 34.7555 23.1739 32.503 22.7646C31.497 22.5841 30.5221 22.2126 29.5584 21.862C29.18 21.7256 28.8394 21.4443 28.5412 21.1672C27.8846 20.5522 27.8312 19.9372 28.3498 19.2151C28.5412 18.9486 28.7704 18.6904 29.0331 18.4847C29.8833 17.8151 30.4331 16.9608 30.8582 16.012C31.0652 15.546 31.3189 15.0989 31.5816 14.6539C31.8487 14.2005 32.2159 13.8395 32.9148 13.7178C32.8525 14.0473 32.7768 14.3349 32.7501 14.6267C32.7078 15.0926 32.966 15.3508 33.4356 15.227C33.7762 15.1346 34.1501 14.931 34.3593 14.6707C34.6754 14.274 34.8868 13.7933 35.0983 13.3315C35.8328 11.7111 36.6919 10.183 38.3568 9.22584C39.0401 8.83332 39.7234 8.40511 40.6827 8.50797C40.5046 8.78084 40.282 8.99074 40.2331 9.23423C40.1819 9.48402 40.2108 9.84925 40.3733 10.0067C40.5402 10.1662 40.9498 10.2334 41.1879 10.1578C41.5752 10.0319 41.9113 9.75899 42.2652 9.54279C42.7148 9.26572 43.1399 8.94666 43.6118 8.71157C44.3374 8.34634 45.1364 8.15323 45.951 8.33585C47.4556 8.67169 48.918 8.60662 50.5005 8C50.3491 8.84591 49.8439 9.33289 49.2496 9.67713C48.7021 9.99198 48.0677 10.1872 47.4512 10.3719C46.6232 10.6196 46.2715 10.9156 46.3673 11.4004C46.4652 11.8916 47.1218 12.3597 47.7784 12.3051C48.2258 12.2673 48.6776 12.1267 49.1005 11.9651C49.7059 11.7363 50.2779 11.4277 50.8766 11.1884C51.5154 10.9365 52.1698 10.712 53 10.9596H52.9933Z" fill="#FF4C33"/>
</svg>
