<svg width="112" height="44" viewBox="0 0 112 44" fill="none" xmlns="http://www.w3.org/2000/svg">
<g clip-path="url(#clip0_2003_288)">
<path d="M27.2245 38.3841C27.2653 37.9644 27.2821 37.5471 27.2845 37.1275C27.1862 36.5591 27.0735 35.9931 26.9849 35.4296C26.738 33.8612 26.3713 32.3168 26.1244 30.7484C25.9207 29.4414 25.8896 28.12 25.8872 26.7986C25.7817 25.9976 25.8153 25.2662 26.1436 24.6235C26.2347 24.4436 26.3114 24.3813 27.1047 23.5467C28.6746 21.892 28.8136 21.7289 28.9118 21.3884C29.2114 20.362 28.6602 19.3931 28.5523 19.2013C28.0802 18.3691 27.3731 17.9926 27.1047 17.8655C26.7692 18.1701 26.4672 18.441 26.1412 18.736C25.8248 18.4506 25.554 18.206 25.2424 17.923C24.871 18.182 24.533 18.4171 24.1807 18.6641C23.8643 18.2876 23.5599 17.9278 23.2076 17.5082C23.047 17.712 22.7666 18.0118 22.3352 18.242C22.1123 18.3595 21.9038 18.4315 21.7288 18.4746C20.6599 18.5562 19.718 18.019 19.4112 17.2132C19.2434 16.7719 19.2219 16.1412 19.5358 15.616C19.7971 15.182 20.1949 14.9709 20.3291 14.9062C20.5161 14.8174 20.6695 14.7863 20.9691 14.7239C21.2495 14.6664 21.597 14.6136 22.0021 14.592C21.9925 14.1555 21.9853 13.7191 21.9757 13.2826C22.4359 13.1915 22.8361 13.1123 23.2867 13.0236V11.6255C23.7589 11.5967 24.1663 11.5751 24.6241 11.5488C24.6864 10.9444 24.7439 10.4 24.7943 9.89642C25.3311 9.9228 25.7697 9.94439 26.2155 9.96837C26.2155 9.41439 26.134 8.98273 26.2371 8.59902C26.3425 8.20572 26.6373 7.86519 26.8363 7.49587C26.9441 7.29442 27.0208 7.07619 27.1239 6.86995C27.4115 6.29439 27.3012 5.762 26.9801 5.23681C26.0477 3.70678 24.9596 3.23914 23.2052 3.63244C22.944 3.69 22.6779 3.74276 22.4263 3.82909C19.8546 4.70921 17.2733 5.55097 14.6153 6.14331C13.7214 6.34236 13.0287 6.9347 12.5733 7.7213C12.0005 8.71413 11.4061 9.71416 11.0011 10.7789C10.7135 11.5392 10.2629 11.8557 9.53907 12.0116C9.02138 12.1243 8.49649 12.2778 8.02194 12.508C7.36044 12.8318 7.30532 13.2035 7.74632 13.7886C7.98839 14.11 8.25682 14.4097 8.57558 14.7935C8.25922 14.9349 8.09624 15.0189 7.92607 15.0836C7.49706 15.2443 7.05126 15.3714 6.63423 15.5585C5.50058 16.0645 5.39033 16.5177 6.15009 17.4626C6.38258 17.7528 6.61985 18.0358 6.91225 18.3907C5.81934 18.9471 4.57544 19.0286 3.85163 20.0646C4.12246 21.1078 5.22256 21.338 5.82174 22.1126C4.57784 22.7313 3.10145 22.8608 2.23384 24.0815C2.90971 25.4029 4.32378 25.5108 5.49099 26.3142C4.95173 26.506 4.52511 26.6307 4.12006 26.8082C3.31716 27.1607 2.49029 27.4845 1.74251 27.9329C0.930016 28.4174 0.884478 28.8442 1.57234 29.4654C2.16193 30.0002 2.85699 30.4222 3.51609 30.8731C3.82527 31.0841 4.1632 31.2496 4.65933 31.535C4.19916 31.6837 3.91874 31.7748 3.64072 31.8659C2.84261 32.1297 2.01813 32.336 1.24878 32.6693C-0.29711 33.3384 -0.402566 34.089 0.903652 35.1634C1.69937 35.8181 2.5574 36.4056 3.42261 36.9668C3.81328 37.221 4.017 37.4776 4.06014 37.9572C4.21354 39.7367 4.51313 40.07 6.24117 40.576C6.49762 40.6504 6.75647 40.7367 7.02011 40.7703C8.84162 41.0029 10.6583 41.3506 12.487 41.4226C15.2792 41.5329 18.0834 41.5185 20.878 41.4226C22.3208 41.3722 23.7709 41.1108 25.1873 40.8014C26.7764 40.4537 27.04 40.3026 27.2221 38.3817L27.2245 38.3841ZM18.824 9.81489C18.7737 10.2825 18.2488 10.6351 17.7814 10.7142C17.7191 10.7238 17.0816 10.8221 16.6214 10.3641C16.3074 10.0499 16.1109 9.50552 16.3074 9.11942C16.3721 8.99232 16.4608 8.91318 16.5183 8.86522C16.8491 8.58223 17.2685 8.60142 17.4147 8.60861C17.9252 8.6302 18.5676 8.90598 18.7689 9.44797C18.7976 9.52471 18.8432 9.65421 18.8264 9.81728L18.824 9.81489Z" fill="#161827"/>
<path d="M51.9928 3.85426C51.7067 3.91373 51.2524 4.04457 50.8245 4.37999C50.1154 4.93428 50.1274 5.54328 49.4135 6.55669C49.0818 7.02534 48.7356 7.51777 48.0986 7.92932C47.3438 8.417 46.4424 8.62634 45.428 8.61445C45.0986 8.60969 44.7669 8.54308 44.44 8.52167C44.0698 8.49788 43.6924 8.45268 43.3222 8.48123C42.4521 8.54784 41.9833 8.94036 42.0266 9.51129C42.0771 10.194 42.7165 10.6175 43.6083 10.47C44.089 10.3915 44.5482 10.1774 45.0121 10.0109C46.1708 9.59931 47.3222 9.38045 48.7476 10.2012C46.7044 10.4224 45.6996 11.7427 44.6419 12.9536C42.6516 15.2349 40.0747 16.4506 37.1564 17.0286C34.743 17.5092 32.2959 17.6971 29.8633 17.2332C28.7768 17.0286 27.7239 16.6076 26.683 16.2103C26.2744 16.0557 25.9066 15.7369 25.5845 15.4229C24.8754 14.7259 24.8177 14.0288 25.3778 13.2105C25.5845 12.9084 25.8321 12.6158 26.1157 12.3826C27.034 11.6238 27.6277 10.6555 28.0869 9.58028C28.3104 9.05216 28.5844 8.54546 28.8681 8.04113C29.1566 7.52729 29.5532 7.11811 30.308 6.98014C30.2407 7.35363 30.1589 7.67954 30.1301 8.0102C30.0844 8.53832 30.3633 8.83093 30.8705 8.69057C31.2383 8.5859 31.6421 8.35515 31.8681 8.06016C32.2094 7.61055 32.4378 7.06578 32.6661 6.54242C33.4594 4.7059 34.3873 2.97406 36.1853 1.88928C36.9233 1.44443 37.6612 0.959129 38.6973 1.0757C38.505 1.38495 38.2646 1.62284 38.2117 1.8988C38.1564 2.18189 38.1877 2.59582 38.3632 2.77423C38.5434 2.95503 38.9858 3.03116 39.243 2.94551C39.6612 2.80278 40.0242 2.49352 40.4064 2.2485C40.892 1.93448 41.3511 1.57289 41.8607 1.30645C42.6444 0.892519 43.5073 0.67366 44.3871 0.880625C46.0121 1.26125 47.5914 1.1875 49.3005 0.5C49.1371 1.4587 48.5914 2.0106 47.9496 2.40075C47.3582 2.75758 46.6731 2.97882 46.0073 3.18816C45.1131 3.46887 44.7333 3.8043 44.8366 4.35383C44.9424 4.91049 45.6515 5.44099 46.3607 5.37913C46.8438 5.33631 47.3318 5.17693 47.7885 4.99375C48.4424 4.73445 49.0601 4.38475 49.7068 4.11356C50.3967 3.82809 51.1034 3.57355 52 3.85426H51.9928Z" fill="#FF4C33"/>
<path d="M106.17 37.0866C107.655 37.0866 108.843 36.1626 108.843 34.8426V33.9515L106.302 34.1275C104.96 34.2155 104.245 34.7436 104.245 35.6346C104.245 36.5256 105.004 37.0866 106.17 37.0866ZM105.125 39.4297C102.793 39.4297 101.044 37.9667 101.044 35.7996C101.044 33.5995 102.727 32.3565 105.818 32.1695L108.843 31.9825V31.1794C108.843 30.0134 108.04 29.3754 106.72 29.3754C105.554 29.3754 104.74 29.9914 104.586 30.8714H101.649C101.737 28.5614 103.827 26.9663 106.852 26.9663C109.965 26.9663 112 28.5614 112 30.9814V39.2867H108.898V37.4167H108.832C108.172 38.6817 106.676 39.4297 105.125 39.4297Z" fill="#161827"/>
<path d="M95.981 39.2866V22.6541H99.1931V39.2866H95.981Z" fill="#161827"/>
<path d="M90.3357 39.2866V22.6541H93.5478V39.2866H90.3357Z" fill="#161827"/>
<path d="M84.7229 39.2866V27.1752H87.935V39.2866H84.7229ZM86.329 25.8551C85.383 25.8551 84.6019 25.1291 84.6019 24.1721C84.6019 23.215 85.383 22.5 86.329 22.5C87.286 22.5 88.067 23.215 88.067 24.1721C88.067 25.1291 87.286 25.8551 86.329 25.8551Z" fill="#161827"/>
<path d="M70.2661 39.2866V37.1195L78.3294 26.2402V26.1522H70.4531V23.4131H82.3005V25.5692L74.2702 36.4595V36.5365H82.5205V39.2866H70.2661Z" fill="#161827"/>
<path d="M59.3406 43.7088C59.2196 43.7088 58.2405 43.6868 58.1195 43.6648V41.1788C58.2295 41.2008 58.7136 41.2118 58.8456 41.2118C60.0446 41.2118 60.7376 40.7937 60.9906 39.8257L61.1006 39.3637L56.8545 27.1753H60.3746L62.9927 36.6796H63.0587L65.6878 27.1753H69.0759L64.8848 39.5287C63.8507 42.6198 62.3657 43.7088 59.3406 43.7088Z" fill="#161827"/>
<path d="M49.79 37.0866C51.275 37.0866 52.4631 36.1626 52.4631 34.8426V33.9515L49.922 34.1275C48.5799 34.2155 47.8649 34.7436 47.8649 35.6346C47.8649 36.5256 48.6239 37.0866 49.79 37.0866ZM48.745 39.4297C46.4129 39.4297 44.6638 37.9667 44.6638 35.7996C44.6638 33.5995 46.3469 32.3565 49.438 32.1695L52.4631 31.9825V31.1794C52.4631 30.0134 51.66 29.3754 50.34 29.3754C49.174 29.3754 48.3599 29.9914 48.2059 30.8714H45.2688C45.3568 28.5614 47.4469 26.9663 50.472 26.9663C53.5851 26.9663 55.6202 28.5614 55.6202 30.9814V39.2867H52.5181V37.4167H52.4521C51.7921 38.6817 50.296 39.4297 48.745 39.4297Z" fill="#161827"/>
<path d="M32 23.4131H38.6222C41.8783 23.4131 44.1224 25.5802 44.1224 28.8473C44.1224 32.1034 41.8013 34.2814 38.4572 34.2814H35.3221V39.2866H32V23.4131ZM35.3221 26.0422V31.6854H37.7312C39.6343 31.6854 40.7453 30.6733 40.7453 28.8583C40.7453 27.0542 39.6453 26.0422 37.7422 26.0422H35.3221Z" fill="#161827"/>
</g>
<defs>
<clipPath id="clip0_2003_288">
<rect width="112" height="44" fill="white"/>
</clipPath>
</defs>
</svg>
