<svg width="26" height="10" viewBox="0 0 26 10" fill="none" xmlns="http://www.w3.org/2000/svg">
<g clip-path="url(#clip0_1_72)">
<path d="M16.9308 0.513672C15.0866 0.513672 13.4384 1.5328 13.4384 3.4157C13.4384 5.57505 16.3614 5.72419 16.3614 6.80898C16.3614 7.26574 15.8705 7.67462 15.0319 7.67462C13.8418 7.67462 12.9523 7.1033 12.9523 7.1033L12.5717 9.00336C12.5717 9.00336 13.5964 9.48595 14.9568 9.48595C16.9731 9.48595 18.5598 8.41679 18.5598 6.50168C18.5598 4.21995 15.6246 4.07524 15.6246 3.06837C15.6246 2.71056 16.0277 2.31852 16.8638 2.31852C17.8073 2.31852 18.577 2.73402 18.577 2.73402L18.9495 0.898878C18.9495 0.898878 18.112 0.513672 16.9308 0.513672ZM0.0576573 0.652173L0.0130005 0.929176C0.0130005 0.929176 0.788882 1.08056 1.48769 1.38255C2.38746 1.72884 2.45156 1.93043 2.60309 2.55656L4.25438 9.34312H6.46793L9.87809 0.652173H7.66961L5.47838 6.5612L4.58423 1.55243C4.50223 0.979182 4.08686 0.652173 3.57844 0.652173H0.0576573ZM10.7661 0.652173L9.03367 9.34312H11.1396L12.866 0.652173H10.7661ZM22.5119 0.652173C22.0041 0.652173 21.735 0.942033 21.5376 1.44855L18.4522 9.34312H20.6607L21.088 8.02736H23.7785L24.0383 9.34312H25.987L24.287 0.652173H22.5119ZM22.7991 3.0002L23.4537 6.26147H21.7L22.7991 3.0002Z" fill="#161827"/>
</g>
<defs>
<clipPath id="clip0_1_72">
<rect width="26" height="9" fill="white" transform="translate(0 0.5)"/>
</clipPath>
</defs>
</svg>
