<svg width="26" height="16" viewBox="0 0 26 16" fill="none" xmlns="http://www.w3.org/2000/svg">
<g clip-path="url(#clip0_1_66)">
<path fill-rule="evenodd" clip-rule="evenodd" d="M9.38763 14.269H16.3463V1.70801H9.38763V14.269Z" fill="#FF5F00"/>
<path fill-rule="evenodd" clip-rule="evenodd" d="M9.82945 7.98847C9.82945 5.44015 11.0173 3.17054 12.867 1.70798C11.5141 0.63819 9.80736 0 7.95215 0C3.56021 0 0 3.57662 0 7.98847C0 12.4003 3.56021 15.9769 7.95215 15.9769C9.80736 15.9769 11.5141 15.3388 12.867 14.269C11.0173 12.8062 9.82945 10.5368 9.82945 7.98847Z" fill="#EB001B"/>
<path fill-rule="evenodd" clip-rule="evenodd" d="M25.4857 12.9387V12.6287H25.4051L25.3126 12.8419L25.2198 12.6287H25.1391V12.9387H25.1959V12.7048L25.2829 12.9065H25.3419L25.429 12.7043V12.9387H25.4857ZM24.9752 12.9387V12.6815H25.0786V12.6291H24.8157V12.6815H24.9189V12.9387H24.9752ZM25.734 7.98847C25.734 12.4003 22.1736 15.9769 17.7819 15.9769C15.9267 15.9769 14.2197 15.3388 12.8671 14.269C14.7168 12.8064 15.9046 10.5368 15.9046 7.98847C15.9046 5.44037 14.7168 3.17076 12.8671 1.70798C14.2197 0.63819 15.9267 0 17.7819 0C22.1736 0 25.734 3.57662 25.734 7.98847Z" fill="#F79E1B"/>
</g>
<defs>
<clipPath id="clip0_1_66">
<rect width="26" height="16" fill="white"/>
</clipPath>
</defs>
</svg>
