<?xml version="1.0" encoding="utf-8"?><svg xmlns="http://www.w3.org/2000/svg" xmlns:xlink="http://www.w3.org/1999/xlink"><symbol viewBox="0 0 14 13" id="check" xmlns="http://www.w3.org/2000/svg"><path fill-rule="evenodd" clip-rule="evenodd" d="M6.0107 8.71875L11.5141 1.84313L13.0756 3.09293L6.09371 11.8156L1.32333 6.46996L2.81555 5.13831L6.0107 8.71875Z"/></symbol><symbol viewBox="0 0 22 22" id="cross" xmlns="http://www.w3.org/2000/svg"><line x1="16.7978" y1="5.40433" x2="6.19116" y2="16.0109"/><line x1="16.5957" y1="16.0108" x2="5.98913" y2="5.40418"/></symbol><symbol viewBox="0 0 18 18" id="error" xmlns="http://www.w3.org/2000/svg"><path d="M8.99692 16.4998C13.1219 16.4998 16.4969 13.1248 16.4969 8.99982C16.4969 4.87482 13.1219 1.49982 8.99692 1.49982C4.87192 1.49982 1.49692 4.87482 1.49692 8.99982C1.49692 13.1248 4.87192 16.4998 8.99692 16.4998Z"/><path d="M9 5.99982V9.74982"/><path d="M8.99445 12.0002H9.00118"/></symbol><symbol viewBox="0 0 18 18" id="valid" xmlns="http://www.w3.org/2000/svg"><path d="M8.99689 16.4998C13.1219 16.4998 16.4969 13.1248 16.4969 8.99982C16.4969 4.87482 13.1219 1.49982 8.99689 1.49982C4.87189 1.49982 1.49689 4.87482 1.49689 8.99982C1.49689 13.1248 4.87189 16.4998 8.99689 16.4998Z"/><path d="M12.2691 7.16733L8.37885 11.1381L6.43302 9.3179"/></symbol></svg>