<svg width="24" height="25" viewBox="0 0 24 25" fill="none" xmlns="http://www.w3.org/2000/svg">
<path d="M8.96997 22.5H14.97C19.97 22.5 21.97 20.5 21.97 15.5V9.5C21.97 4.5 19.97 2.5 14.97 2.5H8.96997C3.96997 2.5 1.96997 4.5 1.96997 9.5V15.5C1.96997 20.5 3.96997 22.5 8.96997 22.5Z" stroke="white" stroke-width="1.5" stroke-linecap="round" stroke-linejoin="round"/>
<path opacity="0.4" d="M1.96997 13.2L7.96997 13.18C8.71997 13.18 9.55997 13.75 9.83997 14.45L10.98 17.33C11.24 17.98 11.65 17.98 11.91 17.33L14.2 11.52C14.42 10.96 14.83 10.94 15.11 11.47L16.15 13.44C16.46 14.03 17.26 14.51 17.92 14.51H21.98" stroke="white" stroke-width="1.5" stroke-linecap="round" stroke-linejoin="round"/>
</svg>
