<svg width="397" height="326" viewBox="0 0 397 326" fill="none" xmlns="http://www.w3.org/2000/svg">
<rect width="397" height="325.033" rx="20" transform="matrix(1 0 0 -1 0 325.033)" fill="white"/>
<path d="M28.7471 283.131C28.7471 280.731 30.6631 279.035 33.4316 279.035C36.1035 279.035 37.9404 280.582 37.9404 282.7C37.9404 284.282 36.8857 285.468 35.4883 286.857L32.3945 289.837V289.889H38.1162V291.999H28.8965V290.215L33.6777 285.609C34.9609 284.326 35.3564 283.684 35.3564 282.805C35.3564 281.856 34.5215 281.1 33.3438 281.1C32.1133 281.1 31.208 281.962 31.208 283.131V283.174H28.7471V283.131ZM39.6104 283.131C39.6104 280.731 41.5264 279.035 44.2949 279.035C46.9668 279.035 48.8037 280.582 48.8037 282.7C48.8037 284.282 47.749 285.468 46.3516 286.857L43.2578 289.837V289.889H48.9795V291.999H39.7598V290.215L44.541 285.609C45.8242 284.326 46.2197 283.684 46.2197 282.805C46.2197 281.856 45.3848 281.1 44.207 281.1C42.9766 281.1 42.0713 281.962 42.0713 283.131V283.174H39.6104V283.131ZM52.4512 294.381H50.5088L51.2383 289.626H53.6465L52.4512 294.381ZM60.3174 292.28C57.5928 292.28 55.6328 290.663 55.5537 288.369H58.0059C58.1553 289.441 59.1045 290.179 60.335 290.179C61.7236 290.179 62.6816 289.213 62.6816 287.833C62.6816 286.426 61.7236 285.442 60.3525 285.442C59.3945 285.442 58.5684 285.882 58.1289 286.611H55.7559L56.3799 279.316H64.4482V281.425H58.4629L58.1729 284.897H58.2256C58.7441 284.045 59.7549 283.508 61.0469 283.508C63.4727 283.508 65.2129 285.293 65.2129 287.762C65.2129 290.452 63.2266 292.28 60.3174 292.28ZM72.7363 291.999V289.74H66.4258V287.481C67.5332 285.372 68.9131 283.148 71.5146 279.316H75.2588V287.613H76.9111V289.74H75.2588V291.999H72.7363ZM68.7549 287.622V287.692H72.7891V281.197H72.7363C70.8906 283.904 69.7832 285.635 68.7549 287.622ZM83.0107 292.28C80.585 292.28 78.6777 290.839 78.3262 288.764H80.9453C81.2002 289.617 82.0352 290.179 83.0547 290.179C84.8037 290.179 85.8672 288.518 85.7969 285.609C85.7881 285.609 85.7705 285.609 85.7705 285.609H85.7529H85.7441C85.2871 286.848 84.0391 287.683 82.3691 287.683C79.9785 287.683 78.1592 285.908 78.1592 283.5C78.1592 280.889 80.2158 279.026 83.0459 279.026C84.874 279.026 86.3945 279.843 87.2734 281.346C87.9766 282.427 88.3369 283.851 88.3369 285.548C88.3369 289.749 86.3506 292.28 83.0107 292.28ZM83.0635 285.688C84.3818 285.688 85.3838 284.721 85.3838 283.438C85.3838 282.146 84.373 281.144 83.0811 281.144C81.7803 281.144 80.752 282.146 80.752 283.421C80.752 284.721 81.7451 285.688 83.0635 285.688Z" fill="#3F52FF"/>
<path d="M32.751 265.999H31.5205V257.242H28.3418V256.134H35.9297V257.242H32.751V265.999ZM38.6777 266.067C36.6064 266.067 35.2803 264.597 35.2803 262.314C35.2803 260.024 36.6064 258.561 38.6777 258.561C40.749 258.561 42.0752 260.024 42.0752 262.314C42.0752 264.597 40.749 266.067 38.6777 266.067ZM38.6777 265.007C40.0518 265.007 40.8652 264.003 40.8652 262.314C40.8652 260.619 40.0518 259.621 38.6777 259.621C37.3037 259.621 36.4902 260.626 36.4902 262.314C36.4902 264.003 37.3105 265.007 38.6777 265.007ZM43.7158 256.968H44.9053V258.63H46.3408V259.614H44.9053V264.037C44.9053 264.714 45.1924 265.021 45.8213 265.021C45.9648 265.021 46.252 265.001 46.334 264.987V265.992C46.1904 266.026 45.8486 266.053 45.5684 266.053C44.2354 266.053 43.7158 265.5 43.7158 264.085V259.614H42.6904V258.63H43.7158V256.968ZM49.998 265.035C51.2012 265.035 52.083 264.256 52.083 263.196V262.601L50.1553 262.724C49.0479 262.793 48.4736 263.196 48.4736 263.907C48.4736 264.59 49.0684 265.035 49.998 265.035ZM49.7451 266.067C48.248 266.067 47.2568 265.206 47.2568 263.9C47.2568 262.635 48.2275 261.89 50.0186 261.781L52.083 261.658V261.043C52.083 260.127 51.4814 259.621 50.3945 259.621C49.54 259.621 48.9043 260.058 48.7607 260.756H47.6191C47.6533 259.511 48.8633 258.561 50.4082 258.561C52.1514 258.561 53.2725 259.491 53.2725 260.94V265.999H52.1445V264.72H52.1172C51.7002 265.541 50.7773 266.067 49.7451 266.067ZM54.9199 265.999V255.704H56.1094V265.999H54.9199Z" fill="#7F7F7F"/>
<path d="M369 251.545V297.033H116V260.226C122.95 257.908 132.72 255.601 144.44 255.611C149.94 255.621 156.09 255.631 163.52 257.758C168.71 259.247 174.4 261.724 182.24 265.13C188.52 267.867 190.76 269.066 194.46 268.966C198.21 268.876 200.92 267.518 206.16 264.371C220.46 255.811 222.69 252.514 231.46 249.268C238.4 246.701 242.25 246.831 244.67 247.2C248.29 247.76 250.96 249.248 254.11 250.996C257.19 252.704 257.53 253.343 263.94 257.938C268.1 260.925 270.23 262.443 272.41 263.622C277.59 266.429 280.38 267.937 283.91 267.777C288.48 267.567 292.05 264.661 297.3 260.395C301.33 257.129 303.22 254.602 307.31 254.152C309.23 253.943 310.74 254.282 311.97 254.562C317.16 255.731 319.27 258.548 322.55 260.595C327.71 263.832 333.82 263.932 337.27 264.001C346.26 264.161 353.12 260.635 359.8 257.209C363.91 255.101 367 253.004 369 251.545Z" fill="url(#paint0_linear_1_660)" fill-opacity="0.3"/>
<path d="M116 260.226C122.95 257.908 132.72 255.601 144.44 255.611C149.94 255.611 156.09 255.631 163.52 257.758C168.71 259.247 174.4 261.724 182.24 265.13C188.52 267.867 190.76 269.066 194.46 268.966C198.21 268.876 200.92 267.518 206.16 264.371C220.46 255.811 222.69 252.514 231.46 249.268C238.4 246.701 242.25 246.831 244.67 247.2C248.29 247.76 250.96 249.248 254.11 250.996C257.19 252.704 257.53 253.343 263.94 257.938C268.1 260.925 270.23 262.443 272.41 263.622C277.59 266.429 280.38 267.937 283.91 267.777C288.48 267.567 292.05 264.661 297.3 260.395C301.33 257.129 303.22 254.602 307.31 254.152C309.23 253.943 310.74 254.282 311.97 254.562C317.16 255.731 319.27 258.548 322.55 260.595C327.71 263.832 333.82 263.932 337.27 264.001C346.26 264.161 353.12 260.635 359.8 257.209C363.91 255.101 367 253.004 369 251.545" stroke="#3F52FF" stroke-width="2" stroke-miterlimit="10"/>
<path d="M32.1191 218.999H28.8203V210.544H32.1309C33.5781 210.544 34.5566 211.387 34.5566 212.653C34.5566 213.532 33.9121 214.352 33.0977 214.499V214.545C34.2461 214.692 34.9844 215.501 34.9844 216.626C34.9844 218.114 33.918 218.999 32.1191 218.999ZM29.875 211.475V214.188H31.5625C32.8105 214.188 33.4902 213.69 33.4902 212.776C33.4902 211.938 32.916 211.475 31.8906 211.475H29.875ZM29.875 218.067H31.9609C33.2324 218.067 33.9004 217.551 33.9004 216.573C33.9004 215.594 33.209 215.096 31.8613 215.096H29.875V218.067ZM36.1094 218.999V210.174H37.1289V218.999H36.1094ZM41.1719 219.057C39.3965 219.057 38.2598 217.797 38.2598 215.84C38.2598 213.878 39.3965 212.624 41.1719 212.624C42.9473 212.624 44.084 213.878 44.084 215.84C44.084 217.797 42.9473 219.057 41.1719 219.057ZM41.1719 218.149C42.3496 218.149 43.0469 217.288 43.0469 215.84C43.0469 214.387 42.3496 213.532 41.1719 213.532C39.9941 213.532 39.2969 214.393 39.2969 215.84C39.2969 217.288 40 218.149 41.1719 218.149ZM50.377 214.739H49.375C49.2461 214.065 48.6836 213.532 47.7344 213.532C46.6328 213.532 45.8828 214.446 45.8828 215.84C45.8828 217.276 46.6445 218.149 47.7461 218.149C48.625 218.149 49.2109 217.739 49.3867 216.977H50.3887C50.2188 218.208 49.1816 219.057 47.7402 219.057C46.0059 219.057 44.8457 217.827 44.8457 215.84C44.8457 213.901 46 212.624 47.7285 212.624C49.293 212.624 50.248 213.631 50.377 214.739ZM52.4453 215.506L55.2754 212.682H56.5176L53.7578 215.413L56.5996 218.999H55.416L53.043 216.04L52.4453 216.602V218.999H51.4258V210.174H52.4453V215.506ZM59.6055 213.52C58.6152 213.52 57.9004 214.241 57.8301 215.307H61.3047C61.2812 214.235 60.6016 213.52 59.6055 213.52ZM61.2812 217.194H62.2891C62.1133 218.278 61.0176 219.057 59.6699 219.057C57.8945 219.057 56.7754 217.821 56.7754 215.864C56.7754 213.907 57.9004 212.624 59.623 212.624C61.3105 212.624 62.3652 213.813 62.3652 215.723V216.122H57.8301V216.18C57.8301 217.381 58.5684 218.161 59.6934 218.161C60.4844 218.161 61.0996 217.786 61.2812 217.194ZM65.834 219.057C64.2461 219.057 63.127 217.768 63.127 215.84C63.127 213.913 64.2402 212.624 65.8105 212.624C66.7129 212.624 67.4395 213.016 67.8262 213.708H67.8496V210.174H68.8691V218.999H67.8965V217.932H67.8789C67.4688 218.659 66.748 219.057 65.834 219.057ZM66.0156 213.532C64.9082 213.532 64.1699 214.446 64.1699 215.84C64.1699 217.241 64.9082 218.149 66.0156 218.149C67.1113 218.149 67.8555 217.217 67.8555 215.84C67.8555 214.469 67.1113 213.532 66.0156 213.532Z" fill="#7F7F7F"/>
<path d="M90.134 218.499C90.5189 219.165 91.4811 219.165 91.866 218.499L94.4641 213.999C94.849 213.332 94.3679 212.499 93.5981 212.499H88.4019C87.6321 212.499 87.151 213.332 87.5359 213.999L90.134 218.499Z" fill="#FF2525"/>
<path d="M103.645 219.139C101.67 219.139 100.527 217.44 100.527 214.768C100.527 212.12 101.682 210.403 103.645 210.403C105.607 210.403 106.75 212.108 106.75 214.762C106.75 217.434 105.613 219.139 103.645 219.139ZM103.645 218.219C104.963 218.219 105.689 216.878 105.689 214.768C105.689 212.688 104.951 211.329 103.645 211.329C102.338 211.329 101.588 212.7 101.588 214.762C101.588 216.872 102.32 218.219 103.645 218.219ZM108.508 219.057C108.133 219.057 107.84 218.764 107.84 218.389C107.84 218.008 108.133 217.721 108.508 217.721C108.889 217.721 109.176 218.008 109.176 218.389C109.176 218.764 108.889 219.057 108.508 219.057ZM113.383 219.139C111.408 219.139 110.266 217.44 110.266 214.768C110.266 212.12 111.42 210.403 113.383 210.403C115.346 210.403 116.488 212.108 116.488 214.762C116.488 217.434 115.352 219.139 113.383 219.139ZM113.383 218.219C114.701 218.219 115.428 216.878 115.428 214.768C115.428 212.688 114.689 211.329 113.383 211.329C112.076 211.329 111.326 212.7 111.326 214.762C111.326 216.872 112.059 218.219 113.383 218.219ZM118.838 218.999H117.818L124.006 210.544H125.014L118.838 218.999ZM125.559 216.983C125.559 218.26 124.861 219.092 123.789 219.092C122.717 219.092 122.014 218.26 122.014 216.983C122.014 215.711 122.717 214.879 123.789 214.879C124.861 214.879 125.559 215.711 125.559 216.983ZM123.789 218.378C124.305 218.378 124.621 217.844 124.621 216.983C124.621 216.116 124.316 215.6 123.789 215.6C123.273 215.6 122.951 216.133 122.951 216.983C122.951 217.838 123.273 218.378 123.789 218.378ZM120.854 212.542C120.854 213.819 120.156 214.651 119.084 214.651C118.012 214.651 117.309 213.819 117.309 212.542C117.309 211.27 118.012 210.438 119.084 210.438C120.156 210.438 120.854 211.27 120.854 212.542ZM119.084 213.936C119.6 213.936 119.916 213.403 119.916 212.542C119.916 211.674 119.611 211.159 119.084 211.159C118.568 211.159 118.246 211.692 118.246 212.542C118.246 213.397 118.568 213.936 119.084 213.936Z" fill="#FF2525"/>
<path d="M172.201 218.999H171.146V215.36L168.146 210.544H169.348L171.656 214.34H171.691L174 210.544H175.201L172.201 215.36V218.999ZM177.445 213.52C176.455 213.52 175.74 214.241 175.67 215.307H179.145C179.121 214.235 178.441 213.52 177.445 213.52ZM179.121 217.194H180.129C179.953 218.278 178.857 219.057 177.51 219.057C175.734 219.057 174.615 217.821 174.615 215.864C174.615 213.907 175.74 212.624 177.463 212.624C179.15 212.624 180.205 213.813 180.205 215.723V216.122H175.67V216.18C175.67 217.381 176.408 218.161 177.533 218.161C178.324 218.161 178.939 217.786 179.121 217.194ZM183.34 218.172C184.371 218.172 185.127 217.504 185.127 216.596V216.086L183.475 216.192C182.525 216.251 182.033 216.596 182.033 217.206C182.033 217.792 182.543 218.172 183.34 218.172ZM183.123 219.057C181.84 219.057 180.99 218.319 180.99 217.2C180.99 216.116 181.822 215.477 183.357 215.383L185.127 215.278V214.751C185.127 213.965 184.611 213.532 183.68 213.532C182.947 213.532 182.402 213.907 182.279 214.504H181.301C181.33 213.438 182.367 212.624 183.691 212.624C185.186 212.624 186.146 213.42 186.146 214.663V218.999H185.18V217.903H185.156C184.799 218.606 184.008 219.057 183.123 219.057ZM187.5 218.999V212.682H188.461V213.708H188.484C188.672 213.045 189.275 212.624 190.014 212.624C190.137 212.624 190.318 212.641 190.406 212.665V213.672C190.324 213.637 190.055 213.602 189.879 213.602C189.059 213.602 188.52 214.2 188.52 215.09V218.999H187.5ZM196.781 219.057C195.006 219.057 193.869 217.797 193.869 215.84C193.869 213.878 195.006 212.624 196.781 212.624C198.557 212.624 199.693 213.878 199.693 215.84C199.693 217.797 198.557 219.057 196.781 219.057ZM196.781 218.149C197.959 218.149 198.656 217.288 198.656 215.84C198.656 214.387 197.959 213.532 196.781 213.532C195.604 213.532 194.906 214.393 194.906 215.84C194.906 217.288 195.609 218.149 196.781 218.149ZM200.766 218.999V212.682H201.727V213.708H201.75C202.148 212.993 202.834 212.624 203.812 212.624C205.201 212.624 206.062 213.514 206.062 214.95V218.999H205.043V215.126C205.043 214.094 204.504 213.532 203.508 213.532C202.471 213.532 201.785 214.247 201.785 215.331V218.999H200.766ZM210.832 221.29C210.703 221.29 210.51 221.272 210.387 221.249V220.387C210.504 220.411 210.668 220.422 210.803 220.422C211.389 220.422 211.705 220.141 211.963 219.379L212.086 219.004L209.748 212.682H210.832L212.602 217.961H212.625L214.395 212.682H215.467L212.994 219.385C212.455 220.85 211.951 221.29 210.832 221.29ZM218.648 213.52C217.658 213.52 216.943 214.241 216.873 215.307H220.348C220.324 214.235 219.645 213.52 218.648 213.52ZM220.324 217.194H221.332C221.156 218.278 220.061 219.057 218.713 219.057C216.938 219.057 215.818 217.821 215.818 215.864C215.818 213.907 216.943 212.624 218.666 212.624C220.354 212.624 221.408 213.813 221.408 215.723V216.122H216.873V216.18C216.873 217.381 217.611 218.161 218.736 218.161C219.527 218.161 220.143 217.786 220.324 217.194ZM224.543 218.172C225.574 218.172 226.33 217.504 226.33 216.596V216.086L224.678 216.192C223.729 216.251 223.236 216.596 223.236 217.206C223.236 217.792 223.746 218.172 224.543 218.172ZM224.326 219.057C223.043 219.057 222.193 218.319 222.193 217.2C222.193 216.116 223.025 215.477 224.561 215.383L226.33 215.278V214.751C226.33 213.965 225.814 213.532 224.883 213.532C224.15 213.532 223.605 213.907 223.482 214.504H222.504C222.533 213.438 223.57 212.624 224.895 212.624C226.389 212.624 227.35 213.42 227.35 214.663V218.999H226.383V217.903H226.359C226.002 218.606 225.211 219.057 224.326 219.057ZM228.703 218.999V212.682H229.664V213.708H229.688C229.875 213.045 230.479 212.624 231.217 212.624C231.34 212.624 231.521 212.641 231.609 212.665V213.672C231.527 213.637 231.258 213.602 231.082 213.602C230.262 213.602 229.723 214.2 229.723 215.09V218.999H228.703Z" fill="#7F7F7F"/>
<path d="M252.134 211.499C252.519 210.832 253.481 210.832 253.866 211.499L256.464 215.999C256.849 216.665 256.368 217.499 255.598 217.499H250.402C249.632 217.499 249.151 216.665 249.536 215.999L252.134 211.499Z" fill="#65D909"/>
<path d="M266.705 218.999V217.241H262.457V216.286C263.178 214.95 264.168 213.409 266.166 210.544H267.725V216.315H268.92V217.241H267.725V218.999H266.705ZM263.5 216.292V216.315H266.705V211.422H266.688C265.088 213.708 264.168 215.12 263.5 216.292ZM272.857 219.139C271.07 219.139 269.793 218.126 269.793 216.713C269.793 215.659 270.52 214.792 271.609 214.54V214.516C270.695 214.235 270.127 213.514 270.127 212.624C270.127 211.346 271.287 210.403 272.857 210.403C274.439 210.403 275.582 211.34 275.582 212.629C275.582 213.508 275.025 214.223 274.105 214.516V214.54C275.201 214.797 275.928 215.665 275.928 216.713C275.928 218.131 274.65 219.139 272.857 219.139ZM272.857 218.219C274.023 218.219 274.85 217.557 274.85 216.637C274.85 215.706 274.023 215.049 272.857 215.049C271.697 215.049 270.865 215.711 270.865 216.637C270.865 217.557 271.697 218.219 272.857 218.219ZM272.857 214.124C273.842 214.124 274.539 213.544 274.539 212.723C274.539 211.891 273.848 211.311 272.857 211.311C271.867 211.311 271.176 211.897 271.176 212.723C271.176 213.544 271.867 214.124 272.857 214.124ZM277.984 219.057C277.609 219.057 277.316 218.764 277.316 218.389C277.316 218.008 277.609 217.721 277.984 217.721C278.365 217.721 278.652 218.008 278.652 218.389C278.652 218.764 278.365 219.057 277.984 219.057ZM281.916 215.096V214.206H282.93C283.902 214.206 284.582 213.579 284.582 212.723C284.582 211.885 284.014 211.317 282.941 211.317C281.969 211.317 281.324 211.874 281.23 212.758H280.217C280.334 211.323 281.4 210.403 282.988 210.403C284.5 210.403 285.643 211.311 285.643 212.583C285.643 213.643 284.963 214.405 283.908 214.592V214.616C285.186 214.692 286.006 215.483 286.006 216.672C286.006 218.126 284.682 219.139 283.023 219.139C281.254 219.139 280.123 218.161 280.047 216.76H281.061C281.154 217.628 281.875 218.225 283.012 218.225C284.131 218.225 284.934 217.592 284.934 216.708C284.934 215.711 284.184 215.096 282.977 215.096H281.916ZM289.984 219.139C288.543 219.139 287.436 218.272 287.178 216.948H288.25C288.473 217.715 289.158 218.219 289.996 218.219C291.402 218.219 292.211 216.942 292.24 214.698H292.234C292.229 214.698 292.229 214.698 292.223 214.698C291.865 215.536 290.939 216.081 289.861 216.081C288.25 216.081 287.055 214.891 287.055 213.286C287.055 211.616 288.314 210.397 290.049 210.397C291.32 210.397 292.328 211.083 292.844 212.295C293.125 212.946 293.26 213.708 293.26 214.628C293.26 217.475 292.053 219.139 289.984 219.139ZM290.043 215.155C291.162 215.155 291.994 214.358 291.994 213.28C291.994 212.196 291.15 211.346 290.061 211.346C288.977 211.346 288.121 212.19 288.121 213.251C288.121 214.352 288.936 215.155 290.043 215.155ZM295.615 218.999H294.596L300.783 210.544H301.791L295.615 218.999ZM302.336 216.983C302.336 218.26 301.639 219.092 300.566 219.092C299.494 219.092 298.791 218.26 298.791 216.983C298.791 215.711 299.494 214.879 300.566 214.879C301.639 214.879 302.336 215.711 302.336 216.983ZM300.566 218.378C301.082 218.378 301.398 217.844 301.398 216.983C301.398 216.116 301.094 215.6 300.566 215.6C300.051 215.6 299.729 216.133 299.729 216.983C299.729 217.838 300.051 218.378 300.566 218.378ZM297.631 212.542C297.631 213.819 296.934 214.651 295.861 214.651C294.789 214.651 294.086 213.819 294.086 212.542C294.086 211.27 294.789 210.438 295.861 210.438C296.934 210.438 297.631 211.27 297.631 212.542ZM295.861 213.936C296.377 213.936 296.693 213.403 296.693 212.542C296.693 211.674 296.389 211.159 295.861 211.159C295.346 211.159 295.023 211.692 295.023 212.542C295.023 213.397 295.346 213.936 295.861 213.936Z" fill="#65D909"/>
<path d="M28.9922 182.725H33.5391C35.7734 182.725 37.3281 184.249 37.3281 186.499C37.3281 188.749 35.7344 190.272 33.4531 190.272H31.0078V193.999H28.9922V182.725ZM31.0078 184.374V188.647H33C34.4453 188.647 35.2812 187.866 35.2812 186.499C35.2812 185.147 34.4531 184.374 33.0078 184.374H31.0078ZM41.1172 192.6C42.2969 192.6 43.1953 191.866 43.1953 190.827V190.178L41.2422 190.303C40.1797 190.374 39.6172 190.78 39.6172 191.475C39.6172 192.163 40.2109 192.6 41.1172 192.6ZM40.5469 194.092C38.8672 194.092 37.6641 193.069 37.6641 191.553C37.6641 190.03 38.8281 189.163 40.9766 189.03L43.1953 188.897V188.272C43.1953 187.366 42.5859 186.874 41.5391 186.874C40.6562 186.874 40.0234 187.335 39.8906 188.022H38.0938C38.1406 186.46 39.5938 185.342 41.6016 185.342C43.7344 185.342 45.1172 186.452 45.1172 188.147V193.999H43.25V192.624H43.2031C42.7344 193.538 41.6797 194.092 40.5469 194.092ZM47.6719 197.108C47.5547 197.108 47.0234 197.092 46.9062 197.069V195.522C47.0156 195.545 47.3125 195.553 47.4375 195.553C48.2656 195.553 48.7266 195.233 48.9688 194.428L49.0781 194.03L46.0234 185.46H48.1406L50.1875 192.319H50.2266L52.2656 185.46H54.3203L51.2266 194.295C50.5 196.397 49.5859 197.108 47.6719 197.108ZM55.2812 193.999V185.46H57.1484V186.96H57.1875C57.5625 185.967 58.4922 185.358 59.6172 185.358C60.8203 185.358 61.6875 185.967 62.0078 187.053H62.0469C62.4609 186.006 63.4844 185.358 64.7109 185.358C66.3906 185.358 67.5 186.483 67.5 188.186V193.999H65.5547V188.663C65.5547 187.6 64.9922 186.999 63.9922 186.999C63.0156 186.999 62.3359 187.725 62.3359 188.764V193.999H60.4453V188.553C60.4453 187.592 59.8516 186.999 58.9062 186.999C57.9219 186.999 57.2266 187.756 57.2266 188.811V193.999H55.2812ZM72.7812 186.858C71.6406 186.858 70.8125 187.686 70.7266 188.905H74.7734C74.7344 187.67 73.9375 186.858 72.7812 186.858ZM74.7812 191.46H76.6094C76.3594 193.038 74.8438 194.124 72.8516 194.124C70.3281 194.124 68.7656 192.452 68.7656 189.764C68.7656 187.077 70.3359 185.342 72.7812 185.342C75.1719 185.342 76.6875 186.975 76.6875 189.561V190.202H70.7109V190.319C70.7109 191.694 71.5859 192.608 72.8906 192.608C73.8281 192.608 74.5547 192.163 74.7812 191.46ZM78 193.999V185.46H79.8672V186.944H79.9062C80.4141 185.905 81.3516 185.358 82.6641 185.358C84.5547 185.358 85.7109 186.553 85.7109 188.53V193.999H83.7656V188.913C83.7656 187.694 83.1094 187.006 81.9375 187.006C80.7422 187.006 79.9453 187.85 79.9453 189.1V193.999H78ZM87.875 183.553H89.8203V185.46H91.4375V186.967H89.8203V191.467C89.8203 192.17 90.1484 192.506 90.8516 192.506C91.0391 192.506 91.3047 192.483 91.4297 192.467V193.96C91.2188 194.006 90.8203 194.038 90.4062 194.038C88.5938 194.038 87.875 193.381 87.875 191.733V186.967H86.7109V185.46H87.875V183.553ZM92.6641 187.928C92.6641 186.381 94.0391 185.342 96.0938 185.342C98.0625 185.342 99.4375 186.405 99.4766 187.952H97.6641C97.6016 187.233 96.9844 186.78 96.0547 186.78C95.1484 186.78 94.5547 187.194 94.5547 187.819C94.5547 188.295 94.9531 188.624 95.7969 188.819L97.2969 189.163C99.0156 189.561 99.6719 190.21 99.6719 191.467C99.6719 193.053 98.1875 194.124 96.0469 194.124C93.9531 194.124 92.5703 193.069 92.4453 191.483H94.3594C94.4766 192.256 95.1094 192.686 96.125 192.686C97.1172 192.686 97.7344 192.288 97.7344 191.655C97.7344 191.155 97.4219 190.889 96.5703 190.686L95.0234 190.311C93.4609 189.944 92.6641 189.139 92.6641 187.928ZM108.297 194.124C105.781 194.124 104.188 192.452 104.188 189.725C104.188 187.03 105.797 185.342 108.297 185.342C110.812 185.342 112.414 187.022 112.414 189.725C112.414 192.452 110.828 194.124 108.297 194.124ZM108.297 192.569C109.641 192.569 110.438 191.522 110.438 189.733C110.438 187.944 109.633 186.897 108.297 186.897C106.969 186.897 106.164 187.952 106.164 189.733C106.164 191.522 106.969 192.569 108.297 192.569ZM121.391 185.46V193.999H119.523V192.506H119.477C119.008 193.545 118.055 194.108 116.758 194.108C114.898 194.108 113.68 192.905 113.68 190.936V185.46H115.625V190.545C115.625 191.788 116.305 192.46 117.453 192.46C118.641 192.46 119.445 191.624 119.445 190.358V185.46H121.391ZM123.594 183.553H125.539V185.46H127.156V186.967H125.539V191.467C125.539 192.17 125.867 192.506 126.57 192.506C126.758 192.506 127.023 192.483 127.148 192.467V193.96C126.938 194.006 126.539 194.038 126.125 194.038C124.312 194.038 123.594 193.381 123.594 191.733V186.967H122.43V185.46H123.594V183.553Z" fill="#161827"/>
<path d="M34.9434 143V140.741H28.6328V138.482C29.7402 136.373 31.1201 134.149 33.7217 130.317H37.4658V138.614H39.1182V140.741H37.4658V143H34.9434ZM30.9619 138.623V138.693H34.9961V132.198H34.9434C33.0977 134.905 31.9902 136.637 30.9619 138.623ZM45.4463 143.281C42.7217 143.281 40.7617 141.664 40.6826 139.37H43.1348C43.2842 140.442 44.2334 141.181 45.4639 141.181C46.8525 141.181 47.8105 140.214 47.8105 138.834C47.8105 137.428 46.8525 136.443 45.4814 136.443C44.5234 136.443 43.6973 136.883 43.2578 137.612H40.8848L41.5088 130.317H49.5771V132.427H43.5918L43.3018 135.898H43.3545C43.873 135.046 44.8838 134.51 46.1758 134.51C48.6016 134.51 50.3418 136.294 50.3418 138.764C50.3418 141.453 48.3555 143.281 45.4463 143.281ZM53.6465 145.382H51.7041L52.4336 140.627H54.8418L53.6465 145.382ZM61.3721 143.281C58.1816 143.281 56.2393 140.741 56.2393 136.637C56.2393 132.541 58.1992 130.027 61.3721 130.027C64.5449 130.027 66.4961 132.532 66.4961 136.628C66.4961 140.724 64.5625 143.281 61.3721 143.281ZM61.3721 141.154C62.8838 141.154 63.7979 139.528 63.7979 136.637C63.7979 133.771 62.875 132.154 61.3721 132.154C59.8779 132.154 58.9375 133.78 58.9375 136.637C58.9375 139.52 59.8604 141.154 61.3721 141.154ZM73.1055 143.281C70.0293 143.281 67.9639 141.761 67.9639 139.563C67.9639 137.894 69.1768 136.602 70.9434 136.312V136.259C69.4668 135.916 68.4736 134.782 68.4736 133.385C68.4736 131.451 70.3896 130.036 73.1055 130.036C75.8301 130.036 77.7285 131.442 77.7285 133.394C77.7285 134.773 76.7441 135.907 75.2676 136.259V136.312C77.043 136.61 78.2471 137.902 78.2471 139.572C78.2471 141.77 76.1553 143.281 73.1055 143.281ZM73.1055 141.348C74.5029 141.348 75.4697 140.513 75.4697 139.37C75.4697 138.228 74.5029 137.393 73.1055 137.393C71.708 137.393 70.7324 138.228 70.7324 139.37C70.7324 140.513 71.708 141.348 73.1055 141.348ZM73.1055 135.459C74.2744 135.459 75.1094 134.721 75.1094 133.71C75.1094 132.69 74.2744 131.952 73.1055 131.952C71.9277 131.952 71.1016 132.699 71.1016 133.71C71.1016 134.721 71.9277 135.459 73.1055 135.459ZM80.5322 143L85.9902 132.479V132.427H79.5391V130.317H88.6094V132.453L83.3184 143H80.5322Z" fill="#65D909"/>
<path d="M32.751 117H31.5205V108.243H28.3418V107.136H35.9297V108.243H32.751V117ZM38.6777 117.068C36.6064 117.068 35.2803 115.599 35.2803 113.315C35.2803 111.025 36.6064 109.562 38.6777 109.562C40.749 109.562 42.0752 111.025 42.0752 113.315C42.0752 115.599 40.749 117.068 38.6777 117.068ZM38.6777 116.009C40.0518 116.009 40.8652 115.004 40.8652 113.315C40.8652 111.62 40.0518 110.622 38.6777 110.622C37.3037 110.622 36.4902 111.627 36.4902 113.315C36.4902 115.004 37.3105 116.009 38.6777 116.009ZM46.1221 117.068C44.2695 117.068 42.9639 115.564 42.9639 113.315C42.9639 111.066 44.2627 109.562 46.0947 109.562C47.1475 109.562 47.9951 110.021 48.4463 110.827H48.4736V106.705H49.6631V117H48.5283V115.756H48.5078C48.0293 116.604 47.1885 117.068 46.1221 117.068ZM46.334 110.622C45.042 110.622 44.1807 111.688 44.1807 113.315C44.1807 114.949 45.042 116.009 46.334 116.009C47.6123 116.009 48.4805 114.922 48.4805 113.315C48.4805 111.716 47.6123 110.622 46.334 110.622ZM53.7578 116.036C54.9609 116.036 55.8428 115.257 55.8428 114.197V113.603L53.915 113.726C52.8076 113.794 52.2334 114.197 52.2334 114.908C52.2334 115.592 52.8281 116.036 53.7578 116.036ZM53.5049 117.068C52.0078 117.068 51.0166 116.207 51.0166 114.901C51.0166 113.637 51.9873 112.892 53.7783 112.782L55.8428 112.659V112.044C55.8428 111.128 55.2412 110.622 54.1543 110.622C53.2998 110.622 52.6641 111.06 52.5205 111.757H51.3789C51.4131 110.513 52.623 109.562 54.168 109.562C55.9111 109.562 57.0322 110.492 57.0322 111.941V117H55.9043V115.722H55.877C55.46 116.542 54.5371 117.068 53.5049 117.068ZM59.2402 119.673C59.0898 119.673 58.8643 119.652 58.7207 119.625V118.62C58.8574 118.647 59.0488 118.661 59.2061 118.661C59.8896 118.661 60.2588 118.333 60.5596 117.444L60.7031 117.007L57.9756 109.631H59.2402L61.3047 115.79H61.332L63.3965 109.631H64.6475L61.7627 117.451C61.1338 119.16 60.5459 119.673 59.2402 119.673Z" fill="#7F7F7F"/>
<path d="M369 98.6626V153.999H116V120.558C118.38 122.876 122.12 126.202 127.33 129.678C130.07 131.506 131.47 132.435 133.33 133.064C141.18 135.711 150.21 131.786 152.84 130.517C163.52 125.363 163.39 118.391 173.76 115.843C174.47 115.674 176.72 115.474 181.22 115.094C200.13 113.466 201.59 114.375 207.48 112.777C214.01 111.009 219.01 108.052 221.99 106.274C227.74 102.868 229.71 100.511 235.24 98.7425C239.91 97.2442 243.93 97.1942 246.43 97.1843C255.78 97.1243 258.94 99.9112 274.81 104.146C289.24 107.992 292.95 107.363 295.51 106.274C298.4 105.055 298.65 103.747 303.79 101.15C306.21 99.9312 310.26 97.8835 315.26 97.1743C318.89 96.6548 322.58 97.3341 329.81 98.7126C346.84 101.969 347.19 102.059 348.48 102.149C353.16 102.468 360.11 102.139 369 98.6626Z" fill="url(#paint1_linear_1_660)" fill-opacity="0.3"/>
<path d="M116 120.558C118.38 122.876 122.12 126.202 127.33 129.678C130.07 131.506 131.47 132.435 133.33 133.064C141.18 135.711 150.21 131.786 152.84 130.517C163.52 125.363 163.39 118.391 173.76 115.843C174.47 115.674 176.72 115.474 181.22 115.094C200.13 113.466 201.59 114.375 207.48 112.777C214.01 111.009 219.01 108.052 221.99 106.274C227.74 102.868 229.71 100.511 235.24 98.7425C239.91 97.2442 243.93 97.1942 246.43 97.1843C255.78 97.1243 258.94 99.9112 274.81 104.146C289.24 107.992 292.95 107.363 295.51 106.274C298.4 105.055 298.65 103.747 303.79 101.15C306.21 99.9312 310.26 97.8835 315.26 97.1743C318.89 96.6548 322.58 97.3341 329.81 98.7126C346.84 101.969 347.19 102.059 348.48 102.149C353.16 102.468 360.11 102.149 369 98.6626" stroke="#65D909" stroke-width="2" stroke-miterlimit="10"/>
<path d="M32.1191 69H28.8203V60.5449H32.1309C33.5781 60.5449 34.5566 61.3887 34.5566 62.6543C34.5566 63.5332 33.9121 64.3535 33.0977 64.5V64.5469C34.2461 64.6934 34.9844 65.502 34.9844 66.627C34.9844 68.1152 33.918 69 32.1191 69ZM29.875 61.4766V64.1895H31.5625C32.8105 64.1895 33.4902 63.6914 33.4902 62.7773C33.4902 61.9395 32.916 61.4766 31.8906 61.4766H29.875ZM29.875 68.0684H31.9609C33.2324 68.0684 33.9004 67.5527 33.9004 66.5742C33.9004 65.5957 33.209 65.0977 31.8613 65.0977H29.875V68.0684ZM36.1094 69V60.1758H37.1289V69H36.1094ZM41.1719 69.0586C39.3965 69.0586 38.2598 67.7988 38.2598 65.8418C38.2598 63.8789 39.3965 62.625 41.1719 62.625C42.9473 62.625 44.084 63.8789 44.084 65.8418C44.084 67.7988 42.9473 69.0586 41.1719 69.0586ZM41.1719 68.1504C42.3496 68.1504 43.0469 67.2891 43.0469 65.8418C43.0469 64.3887 42.3496 63.5332 41.1719 63.5332C39.9941 63.5332 39.2969 64.3945 39.2969 65.8418C39.2969 67.2891 40 68.1504 41.1719 68.1504ZM50.377 64.7402H49.375C49.2461 64.0664 48.6836 63.5332 47.7344 63.5332C46.6328 63.5332 45.8828 64.4473 45.8828 65.8418C45.8828 67.2773 46.6445 68.1504 47.7461 68.1504C48.625 68.1504 49.2109 67.7402 49.3867 66.9785H50.3887C50.2188 68.209 49.1816 69.0586 47.7402 69.0586C46.0059 69.0586 44.8457 67.8281 44.8457 65.8418C44.8457 63.9023 46 62.625 47.7285 62.625C49.293 62.625 50.248 63.6328 50.377 64.7402ZM52.4453 65.5078L55.2754 62.6836H56.5176L53.7578 65.4141L56.5996 69H55.416L53.043 66.041L52.4453 66.6035V69H51.4258V60.1758H52.4453V65.5078ZM59.6055 63.5215C58.6152 63.5215 57.9004 64.2422 57.8301 65.3086H61.3047C61.2812 64.2363 60.6016 63.5215 59.6055 63.5215ZM61.2812 67.1953H62.2891C62.1133 68.2793 61.0176 69.0586 59.6699 69.0586C57.8945 69.0586 56.7754 67.8223 56.7754 65.8652C56.7754 63.9082 57.9004 62.625 59.623 62.625C61.3105 62.625 62.3652 63.8145 62.3652 65.7246V66.123H57.8301V66.1816C57.8301 67.3828 58.5684 68.1621 59.6934 68.1621C60.4844 68.1621 61.0996 67.7871 61.2812 67.1953ZM65.834 69.0586C64.2461 69.0586 63.127 67.7695 63.127 65.8418C63.127 63.9141 64.2402 62.625 65.8105 62.625C66.7129 62.625 67.4395 63.0176 67.8262 63.709H67.8496V60.1758H68.8691V69H67.8965V67.9336H67.8789C67.4688 68.6602 66.748 69.0586 65.834 69.0586ZM66.0156 63.5332C64.9082 63.5332 64.1699 64.4473 64.1699 65.8418C64.1699 67.2422 64.9082 68.1504 66.0156 68.1504C67.1113 68.1504 67.8555 67.2188 67.8555 65.8418C67.8555 64.4707 67.1113 63.5332 66.0156 63.5332Z" fill="#7F7F7F"/>
<path d="M90.134 68.5C90.5189 69.1667 91.4811 69.1667 91.866 68.5L94.4641 64C94.849 63.3333 94.3679 62.5 93.5981 62.5H88.4019C87.6321 62.5 87.151 63.3333 87.5359 64L90.134 68.5Z" fill="#FF2525"/>
<path d="M102.842 69V61.6641H102.818L100.58 63.2754V62.1621L102.83 60.5449H103.861V69H102.842ZM106.551 69.0586C106.176 69.0586 105.883 68.7656 105.883 68.3906C105.883 68.0098 106.176 67.7227 106.551 67.7227C106.932 67.7227 107.219 68.0098 107.219 68.3906C107.219 68.7656 106.932 69.0586 106.551 69.0586ZM108.707 62.9824C108.707 61.5059 109.902 60.4043 111.496 60.4043C113.008 60.4043 114.197 61.4297 114.197 62.7246C114.197 63.668 113.77 64.3711 112.357 65.8301L110.219 68.0391V68.0625H114.338V69H108.76V68.2734L111.736 65.1387C112.873 63.9434 113.143 63.4922 113.143 62.7891C113.143 61.9746 112.398 61.3242 111.467 61.3242C110.477 61.3242 109.727 62.0391 109.727 62.9824V62.9883H108.707V62.9824ZM118.463 69.1406C116.846 69.1406 115.65 68.1328 115.562 66.6914H116.6C116.693 67.5938 117.461 68.2148 118.475 68.2148C119.623 68.2148 120.42 67.418 120.42 66.2812C120.42 65.1445 119.617 64.3301 118.492 64.3301C117.701 64.3301 117.027 64.6875 116.682 65.2793H115.691L116.154 60.5449H120.994V61.4824H117.021L116.764 64.2363H116.787C117.168 63.7266 117.871 63.4219 118.68 63.4219C120.303 63.4219 121.475 64.6113 121.475 66.252C121.475 67.9512 120.227 69.1406 118.463 69.1406ZM123.713 69H122.693L128.881 60.5449H129.889L123.713 69ZM130.434 66.9844C130.434 68.2617 129.736 69.0938 128.664 69.0938C127.592 69.0938 126.889 68.2617 126.889 66.9844C126.889 65.7129 127.592 64.8809 128.664 64.8809C129.736 64.8809 130.434 65.7129 130.434 66.9844ZM128.664 68.3789C129.18 68.3789 129.496 67.8457 129.496 66.9844C129.496 66.1172 129.191 65.6016 128.664 65.6016C128.148 65.6016 127.826 66.1348 127.826 66.9844C127.826 67.8398 128.148 68.3789 128.664 68.3789ZM125.729 62.543C125.729 63.8203 125.031 64.6523 123.959 64.6523C122.887 64.6523 122.184 63.8203 122.184 62.543C122.184 61.2715 122.887 60.4395 123.959 60.4395C125.031 60.4395 125.729 61.2715 125.729 62.543ZM123.959 63.9375C124.475 63.9375 124.791 63.4043 124.791 62.543C124.791 61.6758 124.486 61.1602 123.959 61.1602C123.443 61.1602 123.121 61.6934 123.121 62.543C123.121 63.3984 123.443 63.9375 123.959 63.9375Z" fill="#FF2525"/>
<path d="M172.201 69H171.146V65.3613L168.146 60.5449H169.348L171.656 64.3418H171.691L174 60.5449H175.201L172.201 65.3613V69ZM177.445 63.5215C176.455 63.5215 175.74 64.2422 175.67 65.3086H179.145C179.121 64.2363 178.441 63.5215 177.445 63.5215ZM179.121 67.1953H180.129C179.953 68.2793 178.857 69.0586 177.51 69.0586C175.734 69.0586 174.615 67.8223 174.615 65.8652C174.615 63.9082 175.74 62.625 177.463 62.625C179.15 62.625 180.205 63.8145 180.205 65.7246V66.123H175.67V66.1816C175.67 67.3828 176.408 68.1621 177.533 68.1621C178.324 68.1621 178.939 67.7871 179.121 67.1953ZM183.34 68.1738C184.371 68.1738 185.127 67.5059 185.127 66.5977V66.0879L183.475 66.1934C182.525 66.252 182.033 66.5977 182.033 67.207C182.033 67.793 182.543 68.1738 183.34 68.1738ZM183.123 69.0586C181.84 69.0586 180.99 68.3203 180.99 67.2012C180.99 66.1172 181.822 65.4785 183.357 65.3848L185.127 65.2793V64.752C185.127 63.9668 184.611 63.5332 183.68 63.5332C182.947 63.5332 182.402 63.9082 182.279 64.5059H181.301C181.33 63.4395 182.367 62.625 183.691 62.625C185.186 62.625 186.146 63.4219 186.146 64.6641V69H185.18V67.9043H185.156C184.799 68.6074 184.008 69.0586 183.123 69.0586ZM187.5 69V62.6836H188.461V63.709H188.484C188.672 63.0469 189.275 62.625 190.014 62.625C190.137 62.625 190.318 62.6426 190.406 62.666V63.6738C190.324 63.6387 190.055 63.6035 189.879 63.6035C189.059 63.6035 188.52 64.2012 188.52 65.0918V69H187.5ZM196.781 69.0586C195.006 69.0586 193.869 67.7988 193.869 65.8418C193.869 63.8789 195.006 62.625 196.781 62.625C198.557 62.625 199.693 63.8789 199.693 65.8418C199.693 67.7988 198.557 69.0586 196.781 69.0586ZM196.781 68.1504C197.959 68.1504 198.656 67.2891 198.656 65.8418C198.656 64.3887 197.959 63.5332 196.781 63.5332C195.604 63.5332 194.906 64.3945 194.906 65.8418C194.906 67.2891 195.609 68.1504 196.781 68.1504ZM200.766 69V62.6836H201.727V63.709H201.75C202.148 62.9941 202.834 62.625 203.812 62.625C205.201 62.625 206.062 63.5156 206.062 64.9512V69H205.043V65.127C205.043 64.0957 204.504 63.5332 203.508 63.5332C202.471 63.5332 201.785 64.248 201.785 65.332V69H200.766ZM210.832 71.291C210.703 71.291 210.51 71.2734 210.387 71.25V70.3887C210.504 70.4121 210.668 70.4238 210.803 70.4238C211.389 70.4238 211.705 70.1426 211.963 69.3809L212.086 69.0059L209.748 62.6836H210.832L212.602 67.9629H212.625L214.395 62.6836H215.467L212.994 69.3867C212.455 70.8516 211.951 71.291 210.832 71.291ZM218.648 63.5215C217.658 63.5215 216.943 64.2422 216.873 65.3086H220.348C220.324 64.2363 219.645 63.5215 218.648 63.5215ZM220.324 67.1953H221.332C221.156 68.2793 220.061 69.0586 218.713 69.0586C216.938 69.0586 215.818 67.8223 215.818 65.8652C215.818 63.9082 216.943 62.625 218.666 62.625C220.354 62.625 221.408 63.8145 221.408 65.7246V66.123H216.873V66.1816C216.873 67.3828 217.611 68.1621 218.736 68.1621C219.527 68.1621 220.143 67.7871 220.324 67.1953ZM224.543 68.1738C225.574 68.1738 226.33 67.5059 226.33 66.5977V66.0879L224.678 66.1934C223.729 66.252 223.236 66.5977 223.236 67.207C223.236 67.793 223.746 68.1738 224.543 68.1738ZM224.326 69.0586C223.043 69.0586 222.193 68.3203 222.193 67.2012C222.193 66.1172 223.025 65.4785 224.561 65.3848L226.33 65.2793V64.752C226.33 63.9668 225.814 63.5332 224.883 63.5332C224.15 63.5332 223.605 63.9082 223.482 64.5059H222.504C222.533 63.4395 223.57 62.625 224.895 62.625C226.389 62.625 227.35 63.4219 227.35 64.6641V69H226.383V67.9043H226.359C226.002 68.6074 225.211 69.0586 224.326 69.0586ZM228.703 69V62.6836H229.664V63.709H229.688C229.875 63.0469 230.479 62.625 231.217 62.625C231.34 62.625 231.521 62.6426 231.609 62.666V63.6738C231.527 63.6387 231.258 63.6035 231.082 63.6035C230.262 63.6035 229.723 64.2012 229.723 65.0918V69H228.703Z" fill="#7F7F7F"/>
<path d="M252.134 61.5C252.519 60.8333 253.481 60.8333 253.866 61.5L256.464 66C256.849 66.6667 256.368 67.5 255.598 67.5H250.402C249.632 67.5 249.151 66.6667 249.536 66L252.134 61.5Z" fill="#65D909"/>
<path d="M265.744 69.1465C264.479 69.1465 263.471 68.4609 262.949 67.2422C262.668 66.5918 262.533 65.8301 262.533 64.916C262.533 62.0684 263.746 60.3984 265.814 60.3984C267.25 60.3984 268.352 61.2598 268.621 62.5898H267.549C267.32 61.8223 266.641 61.3301 265.803 61.3301C264.391 61.3301 263.588 62.584 263.553 64.834H263.57C263.951 64.0078 264.883 63.4629 265.932 63.4629C267.543 63.4629 268.738 64.6523 268.738 66.2578C268.738 67.9277 267.479 69.1465 265.744 69.1465ZM265.732 68.209C266.811 68.209 267.666 67.3594 267.666 66.293C267.666 65.1855 266.869 64.3887 265.75 64.3887C264.631 64.3887 263.805 65.1855 263.805 66.2637C263.805 67.3477 264.648 68.209 265.732 68.209ZM271.592 65.0977V64.207H272.605C273.578 64.207 274.258 63.5801 274.258 62.7246C274.258 61.8867 273.689 61.3184 272.617 61.3184C271.645 61.3184 271 61.875 270.906 62.7598H269.893C270.01 61.3242 271.076 60.4043 272.664 60.4043C274.176 60.4043 275.318 61.3125 275.318 62.584C275.318 63.6445 274.639 64.4062 273.584 64.5938V64.6172C274.861 64.6934 275.682 65.4844 275.682 66.6738C275.682 68.127 274.357 69.1406 272.699 69.1406C270.93 69.1406 269.799 68.1621 269.723 66.7617H270.736C270.83 67.6289 271.551 68.2266 272.688 68.2266C273.807 68.2266 274.609 67.5938 274.609 66.709C274.609 65.7129 273.859 65.0977 272.652 65.0977H271.592ZM277.809 69.0586C277.434 69.0586 277.141 68.7656 277.141 68.3906C277.141 68.0098 277.434 67.7227 277.809 67.7227C278.189 67.7227 278.477 68.0098 278.477 68.3906C278.477 68.7656 278.189 69.0586 277.809 69.0586ZM282.924 69.1406C281.137 69.1406 279.859 68.127 279.859 66.7148C279.859 65.6602 280.586 64.793 281.676 64.541V64.5176C280.762 64.2363 280.193 63.5156 280.193 62.625C280.193 61.3477 281.354 60.4043 282.924 60.4043C284.506 60.4043 285.648 61.3418 285.648 62.6309C285.648 63.5098 285.092 64.2246 284.172 64.5176V64.541C285.268 64.7988 285.994 65.666 285.994 66.7148C285.994 68.1328 284.717 69.1406 282.924 69.1406ZM282.924 68.2207C284.09 68.2207 284.916 67.5586 284.916 66.6387C284.916 65.707 284.09 65.0508 282.924 65.0508C281.764 65.0508 280.932 65.7129 280.932 66.6387C280.932 67.5586 281.764 68.2207 282.924 68.2207ZM282.924 64.125C283.908 64.125 284.605 63.5449 284.605 62.7246C284.605 61.8926 283.914 61.3125 282.924 61.3125C281.934 61.3125 281.242 61.8984 281.242 62.7246C281.242 63.5449 281.934 64.125 282.924 64.125ZM287.699 69L291.525 61.5059V61.4824H286.973V60.5449H292.568V61.5234L288.807 69H287.699ZM294.912 69H293.893L300.08 60.5449H301.088L294.912 69ZM301.633 66.9844C301.633 68.2617 300.936 69.0938 299.863 69.0938C298.791 69.0938 298.088 68.2617 298.088 66.9844C298.088 65.7129 298.791 64.8809 299.863 64.8809C300.936 64.8809 301.633 65.7129 301.633 66.9844ZM299.863 68.3789C300.379 68.3789 300.695 67.8457 300.695 66.9844C300.695 66.1172 300.391 65.6016 299.863 65.6016C299.348 65.6016 299.025 66.1348 299.025 66.9844C299.025 67.8398 299.348 68.3789 299.863 68.3789ZM296.928 62.543C296.928 63.8203 296.23 64.6523 295.158 64.6523C294.086 64.6523 293.383 63.8203 293.383 62.543C293.383 61.2715 294.086 60.4395 295.158 60.4395C296.23 60.4395 296.928 61.2715 296.928 62.543ZM295.158 63.9375C295.674 63.9375 295.99 63.4043 295.99 62.543C295.99 61.6758 295.686 61.1602 295.158 61.1602C294.643 61.1602 294.32 61.6934 294.32 62.543C294.32 63.3984 294.643 63.9375 295.158 63.9375Z" fill="#65D909"/>
<path d="M28.9922 32.7266H33.5391C35.7734 32.7266 37.3281 34.25 37.3281 36.5C37.3281 38.75 35.7344 40.2734 33.4531 40.2734H31.0078V44H28.9922V32.7266ZM31.0078 34.375V38.6484H33C34.4453 38.6484 35.2812 37.8672 35.2812 36.5C35.2812 35.1484 34.4531 34.375 33.0078 34.375H31.0078ZM41.1172 42.6016C42.2969 42.6016 43.1953 41.8672 43.1953 40.8281V40.1797L41.2422 40.3047C40.1797 40.375 39.6172 40.7812 39.6172 41.4766C39.6172 42.1641 40.2109 42.6016 41.1172 42.6016ZM40.5469 44.0938C38.8672 44.0938 37.6641 43.0703 37.6641 41.5547C37.6641 40.0312 38.8281 39.1641 40.9766 39.0312L43.1953 38.8984V38.2734C43.1953 37.3672 42.5859 36.875 41.5391 36.875C40.6562 36.875 40.0234 37.3359 39.8906 38.0234H38.0938C38.1406 36.4609 39.5938 35.3438 41.6016 35.3438C43.7344 35.3438 45.1172 36.4531 45.1172 38.1484V44H43.25V42.625H43.2031C42.7344 43.5391 41.6797 44.0938 40.5469 44.0938ZM47.6719 47.1094C47.5547 47.1094 47.0234 47.0938 46.9062 47.0703V45.5234C47.0156 45.5469 47.3125 45.5547 47.4375 45.5547C48.2656 45.5547 48.7266 45.2344 48.9688 44.4297L49.0781 44.0312L46.0234 35.4609H48.1406L50.1875 42.3203H50.2266L52.2656 35.4609H54.3203L51.2266 44.2969C50.5 46.3984 49.5859 47.1094 47.6719 47.1094ZM55.2812 44V35.4609H57.1484V36.9609H57.1875C57.5625 35.9688 58.4922 35.3594 59.6172 35.3594C60.8203 35.3594 61.6875 35.9688 62.0078 37.0547H62.0469C62.4609 36.0078 63.4844 35.3594 64.7109 35.3594C66.3906 35.3594 67.5 36.4844 67.5 38.1875V44H65.5547V38.6641C65.5547 37.6016 64.9922 37 63.9922 37C63.0156 37 62.3359 37.7266 62.3359 38.7656V44H60.4453V38.5547C60.4453 37.5938 59.8516 37 58.9062 37C57.9219 37 57.2266 37.7578 57.2266 38.8125V44H55.2812ZM72.7812 36.8594C71.6406 36.8594 70.8125 37.6875 70.7266 38.9062H74.7734C74.7344 37.6719 73.9375 36.8594 72.7812 36.8594ZM74.7812 41.4609H76.6094C76.3594 43.0391 74.8438 44.125 72.8516 44.125C70.3281 44.125 68.7656 42.4531 68.7656 39.7656C68.7656 37.0781 70.3359 35.3438 72.7812 35.3438C75.1719 35.3438 76.6875 36.9766 76.6875 39.5625V40.2031H70.7109V40.3203C70.7109 41.6953 71.5859 42.6094 72.8906 42.6094C73.8281 42.6094 74.5547 42.1641 74.7812 41.4609ZM78 44V35.4609H79.8672V36.9453H79.9062C80.4141 35.9062 81.3516 35.3594 82.6641 35.3594C84.5547 35.3594 85.7109 36.5547 85.7109 38.5312V44H83.7656V38.9141C83.7656 37.6953 83.1094 37.0078 81.9375 37.0078C80.7422 37.0078 79.9453 37.8516 79.9453 39.1016V44H78ZM87.875 33.5547H89.8203V35.4609H91.4375V36.9688H89.8203V41.4688C89.8203 42.1719 90.1484 42.5078 90.8516 42.5078C91.0391 42.5078 91.3047 42.4844 91.4297 42.4688V43.9609C91.2188 44.0078 90.8203 44.0391 90.4062 44.0391C88.5938 44.0391 87.875 43.3828 87.875 41.7344V36.9688H86.7109V35.4609H87.875V33.5547ZM92.6641 37.9297C92.6641 36.3828 94.0391 35.3438 96.0938 35.3438C98.0625 35.3438 99.4375 36.4062 99.4766 37.9531H97.6641C97.6016 37.2344 96.9844 36.7812 96.0547 36.7812C95.1484 36.7812 94.5547 37.1953 94.5547 37.8203C94.5547 38.2969 94.9531 38.625 95.7969 38.8203L97.2969 39.1641C99.0156 39.5625 99.6719 40.2109 99.6719 41.4688C99.6719 43.0547 98.1875 44.125 96.0469 44.125C93.9531 44.125 92.5703 43.0703 92.4453 41.4844H94.3594C94.4766 42.2578 95.1094 42.6875 96.125 42.6875C97.1172 42.6875 97.7344 42.2891 97.7344 41.6562C97.7344 41.1562 97.4219 40.8906 96.5703 40.6875L95.0234 40.3125C93.4609 39.9453 92.6641 39.1406 92.6641 37.9297ZM104.602 44V35.4609H106.547V44H104.602ZM105.57 34.375C104.969 34.375 104.477 33.9062 104.477 33.3047C104.477 32.6953 104.969 32.2344 105.57 32.2344C106.18 32.2344 106.664 32.6953 106.664 33.3047C106.664 33.9062 106.18 34.375 105.57 34.375ZM108.266 44V35.4609H110.133V36.9453H110.172C110.68 35.9062 111.617 35.3594 112.93 35.3594C114.82 35.3594 115.977 36.5547 115.977 38.5312V44H114.031V38.9141C114.031 37.6953 113.375 37.0078 112.203 37.0078C111.008 37.0078 110.211 37.8516 110.211 39.1016V44H108.266Z" fill="#161827"/>
<defs>
<linearGradient id="paint0_linear_1_660" x1="242.5" y1="246.999" x2="242.5" y2="307.033" gradientUnits="userSpaceOnUse">
<stop stop-color="#555AFE"/>
<stop offset="1" stop-color="white" stop-opacity="0"/>
</linearGradient>
<linearGradient id="paint1_linear_1_660" x1="242.5" y1="97" x2="242.5" y2="173.999" gradientUnits="userSpaceOnUse">
<stop stop-color="#65D909"/>
<stop offset="1" stop-color="white" stop-opacity="0"/>
</linearGradient>
</defs>
</svg>
